%TF.GenerationSoftware,KiCad,Pcbnew,8.0.8*%
%TF.CreationDate,2025-03-04T17:09:11-05:00*%
%TF.ProjectId,board_C,626f6172-645f-4432-9e6b-696361645f70,rev?*%
%TF.SameCoordinates,Original*%
%TF.FileFunction,Legend,Top*%
%TF.FilePolarity,Positive*%
%FSLAX46Y46*%
G04 Gerber Fmt 4.6, Leading zero omitted, Abs format (unit mm)*
G04 Created by KiCad (PCBNEW 8.0.8) date 2025-03-04 17:09:11*
%MOMM*%
%LPD*%
G01*
G04 APERTURE LIST*
%ADD10C,0.200000*%
%ADD11C,0.100000*%
%ADD12C,0.250000*%
%ADD13C,0.120000*%
G04 APERTURE END LIST*
D10*
X173495259Y-50997629D02*
X173398521Y-53194790D01*
X173315474Y-53990434D02*
X172956405Y-56160214D01*
X172778708Y-56940194D02*
X172162472Y-59051386D01*
X171892679Y-59804484D02*
X171028139Y-61826723D01*
X170670132Y-62542108D02*
X169569722Y-64446308D01*
X169128649Y-65113690D02*
X167808197Y-66872464D01*
X167290402Y-67482245D02*
X165768899Y-69070297D01*
X165181829Y-69613706D02*
X163481159Y-71008195D01*
X162833258Y-71477418D02*
X160977881Y-72658287D01*
X160278468Y-73046574D02*
X158295069Y-73996840D01*
X157554202Y-74298606D02*
X155471308Y-75004601D01*
X154699645Y-75215506D02*
X152547213Y-75667076D01*
X151755851Y-75784087D02*
X149564840Y-75974738D01*
X148765161Y-75996172D02*
X146567083Y-75923160D01*
X145770590Y-75848709D02*
X143597059Y-75513086D01*
X142815206Y-75343819D02*
X140697484Y-74750412D01*
X139941517Y-74488765D02*
X137910063Y-73646108D01*
X137190854Y-73295845D02*
X135274885Y-72216058D01*
X134602780Y-71782215D02*
X132829853Y-70480828D01*
X132214517Y-69969646D02*
X130610132Y-68465377D01*
X130060416Y-67884208D02*
X128647647Y-66198692D01*
X128171458Y-65555895D02*
X126970626Y-63713374D01*
X126574811Y-63018194D02*
X125603187Y-61045170D01*
X125293441Y-60307604D02*
X124564999Y-58232454D01*
X124345776Y-57463112D02*
X123870994Y-55315681D01*
X123745446Y-54525629D02*
X123531152Y-52336804D01*
X123501086Y-51537403D02*
X123550362Y-49338665D01*
X123616211Y-48541414D02*
X123928348Y-46364386D01*
X124089164Y-45580751D02*
X124659674Y-43456747D01*
X124913144Y-42697999D02*
X125733820Y-40657565D01*
X126076298Y-39934617D02*
X127135337Y-38007103D01*
X127561898Y-37330352D02*
X128844069Y-35543479D01*
X129348578Y-34922660D02*
X130835438Y-33302128D01*
X131410638Y-32746169D02*
X133080804Y-31315287D01*
X133718423Y-30832185D02*
X135547871Y-29611531D01*
X136238738Y-29208234D02*
X138201157Y-28215366D01*
X138935336Y-27897675D02*
X141002501Y-27146872D01*
X141769431Y-26919355D02*
X143911611Y-26421417D01*
X144700262Y-26287347D02*
X146886646Y-26049435D01*
X147685676Y-26010740D02*
X149884818Y-26036276D01*
X150682733Y-26093513D02*
X152863003Y-26382129D01*
X153648329Y-26534475D02*
X155778369Y-27082021D01*
X156539809Y-27327284D02*
X158588984Y-28125884D01*
X159315587Y-28460537D02*
X161254423Y-29498705D01*
X161935739Y-29917935D02*
X163736351Y-31180739D01*
X164362580Y-31678516D02*
X165999070Y-33147794D01*
X166561206Y-33716959D02*
X168010037Y-35371579D01*
X168499995Y-36003945D02*
X169740328Y-37820109D01*
X170151060Y-38506581D02*
X171165057Y-40458167D01*
X171490656Y-41188873D02*
X172263732Y-43247812D01*
X172499516Y-44012241D02*
X173020552Y-46148920D01*
X173163128Y-46936078D02*
X173424631Y-49119766D01*
X173471950Y-49918331D02*
X173495259Y-50997629D01*
D11*
X155799143Y-26760104D02*
X155799143Y-25760104D01*
X156275333Y-26093437D02*
X156275333Y-26760104D01*
X156275333Y-26188675D02*
X156322952Y-26141056D01*
X156322952Y-26141056D02*
X156418190Y-26093437D01*
X156418190Y-26093437D02*
X156561047Y-26093437D01*
X156561047Y-26093437D02*
X156656285Y-26141056D01*
X156656285Y-26141056D02*
X156703904Y-26236294D01*
X156703904Y-26236294D02*
X156703904Y-26760104D01*
X157132476Y-26712485D02*
X157227714Y-26760104D01*
X157227714Y-26760104D02*
X157418190Y-26760104D01*
X157418190Y-26760104D02*
X157513428Y-26712485D01*
X157513428Y-26712485D02*
X157561047Y-26617246D01*
X157561047Y-26617246D02*
X157561047Y-26569627D01*
X157561047Y-26569627D02*
X157513428Y-26474389D01*
X157513428Y-26474389D02*
X157418190Y-26426770D01*
X157418190Y-26426770D02*
X157275333Y-26426770D01*
X157275333Y-26426770D02*
X157180095Y-26379151D01*
X157180095Y-26379151D02*
X157132476Y-26283913D01*
X157132476Y-26283913D02*
X157132476Y-26236294D01*
X157132476Y-26236294D02*
X157180095Y-26141056D01*
X157180095Y-26141056D02*
X157275333Y-26093437D01*
X157275333Y-26093437D02*
X157418190Y-26093437D01*
X157418190Y-26093437D02*
X157513428Y-26141056D01*
X157989619Y-26760104D02*
X157989619Y-26093437D01*
X157989619Y-25760104D02*
X157942000Y-25807723D01*
X157942000Y-25807723D02*
X157989619Y-25855342D01*
X157989619Y-25855342D02*
X158037238Y-25807723D01*
X158037238Y-25807723D02*
X157989619Y-25760104D01*
X157989619Y-25760104D02*
X157989619Y-25855342D01*
X158894380Y-26760104D02*
X158894380Y-25760104D01*
X158894380Y-26712485D02*
X158799142Y-26760104D01*
X158799142Y-26760104D02*
X158608666Y-26760104D01*
X158608666Y-26760104D02*
X158513428Y-26712485D01*
X158513428Y-26712485D02*
X158465809Y-26664865D01*
X158465809Y-26664865D02*
X158418190Y-26569627D01*
X158418190Y-26569627D02*
X158418190Y-26283913D01*
X158418190Y-26283913D02*
X158465809Y-26188675D01*
X158465809Y-26188675D02*
X158513428Y-26141056D01*
X158513428Y-26141056D02*
X158608666Y-26093437D01*
X158608666Y-26093437D02*
X158799142Y-26093437D01*
X158799142Y-26093437D02*
X158894380Y-26141056D01*
X159751523Y-26712485D02*
X159656285Y-26760104D01*
X159656285Y-26760104D02*
X159465809Y-26760104D01*
X159465809Y-26760104D02*
X159370571Y-26712485D01*
X159370571Y-26712485D02*
X159322952Y-26617246D01*
X159322952Y-26617246D02*
X159322952Y-26236294D01*
X159322952Y-26236294D02*
X159370571Y-26141056D01*
X159370571Y-26141056D02*
X159465809Y-26093437D01*
X159465809Y-26093437D02*
X159656285Y-26093437D01*
X159656285Y-26093437D02*
X159751523Y-26141056D01*
X159751523Y-26141056D02*
X159799142Y-26236294D01*
X159799142Y-26236294D02*
X159799142Y-26331532D01*
X159799142Y-26331532D02*
X159322952Y-26426770D01*
X161275333Y-27141056D02*
X161227714Y-27093437D01*
X161227714Y-27093437D02*
X161132476Y-26950580D01*
X161132476Y-26950580D02*
X161084857Y-26855342D01*
X161084857Y-26855342D02*
X161037238Y-26712485D01*
X161037238Y-26712485D02*
X160989619Y-26474389D01*
X160989619Y-26474389D02*
X160989619Y-26283913D01*
X160989619Y-26283913D02*
X161037238Y-26045818D01*
X161037238Y-26045818D02*
X161084857Y-25902961D01*
X161084857Y-25902961D02*
X161132476Y-25807723D01*
X161132476Y-25807723D02*
X161227714Y-25664865D01*
X161227714Y-25664865D02*
X161275333Y-25617246D01*
X162037238Y-26712485D02*
X161942000Y-26760104D01*
X161942000Y-26760104D02*
X161751524Y-26760104D01*
X161751524Y-26760104D02*
X161656286Y-26712485D01*
X161656286Y-26712485D02*
X161608667Y-26617246D01*
X161608667Y-26617246D02*
X161608667Y-26236294D01*
X161608667Y-26236294D02*
X161656286Y-26141056D01*
X161656286Y-26141056D02*
X161751524Y-26093437D01*
X161751524Y-26093437D02*
X161942000Y-26093437D01*
X161942000Y-26093437D02*
X162037238Y-26141056D01*
X162037238Y-26141056D02*
X162084857Y-26236294D01*
X162084857Y-26236294D02*
X162084857Y-26331532D01*
X162084857Y-26331532D02*
X161608667Y-26426770D01*
X162513429Y-26760104D02*
X162513429Y-26093437D01*
X162513429Y-26283913D02*
X162561048Y-26188675D01*
X162561048Y-26188675D02*
X162608667Y-26141056D01*
X162608667Y-26141056D02*
X162703905Y-26093437D01*
X162703905Y-26093437D02*
X162799143Y-26093437D01*
X163132477Y-26760104D02*
X163132477Y-26093437D01*
X163132477Y-26283913D02*
X163180096Y-26188675D01*
X163180096Y-26188675D02*
X163227715Y-26141056D01*
X163227715Y-26141056D02*
X163322953Y-26093437D01*
X163322953Y-26093437D02*
X163418191Y-26093437D01*
X163894382Y-26760104D02*
X163799144Y-26712485D01*
X163799144Y-26712485D02*
X163751525Y-26664865D01*
X163751525Y-26664865D02*
X163703906Y-26569627D01*
X163703906Y-26569627D02*
X163703906Y-26283913D01*
X163703906Y-26283913D02*
X163751525Y-26188675D01*
X163751525Y-26188675D02*
X163799144Y-26141056D01*
X163799144Y-26141056D02*
X163894382Y-26093437D01*
X163894382Y-26093437D02*
X164037239Y-26093437D01*
X164037239Y-26093437D02*
X164132477Y-26141056D01*
X164132477Y-26141056D02*
X164180096Y-26188675D01*
X164180096Y-26188675D02*
X164227715Y-26283913D01*
X164227715Y-26283913D02*
X164227715Y-26569627D01*
X164227715Y-26569627D02*
X164180096Y-26664865D01*
X164180096Y-26664865D02*
X164132477Y-26712485D01*
X164132477Y-26712485D02*
X164037239Y-26760104D01*
X164037239Y-26760104D02*
X163894382Y-26760104D01*
X164656287Y-26760104D02*
X164656287Y-26093437D01*
X164656287Y-26283913D02*
X164703906Y-26188675D01*
X164703906Y-26188675D02*
X164751525Y-26141056D01*
X164751525Y-26141056D02*
X164846763Y-26093437D01*
X164846763Y-26093437D02*
X164942001Y-26093437D01*
X165180097Y-27141056D02*
X165227716Y-27093437D01*
X165227716Y-27093437D02*
X165322954Y-26950580D01*
X165322954Y-26950580D02*
X165370573Y-26855342D01*
X165370573Y-26855342D02*
X165418192Y-26712485D01*
X165418192Y-26712485D02*
X165465811Y-26474389D01*
X165465811Y-26474389D02*
X165465811Y-26283913D01*
X165465811Y-26283913D02*
X165418192Y-26045818D01*
X165418192Y-26045818D02*
X165370573Y-25902961D01*
X165370573Y-25902961D02*
X165322954Y-25807723D01*
X165322954Y-25807723D02*
X165227716Y-25664865D01*
X165227716Y-25664865D02*
X165180097Y-25617246D01*
X155799143Y-28370048D02*
X155799143Y-27370048D01*
X155799143Y-27370048D02*
X156132476Y-28084333D01*
X156132476Y-28084333D02*
X156465809Y-27370048D01*
X156465809Y-27370048D02*
X156465809Y-28370048D01*
X156942000Y-28370048D02*
X156942000Y-27703381D01*
X156942000Y-27370048D02*
X156894381Y-27417667D01*
X156894381Y-27417667D02*
X156942000Y-27465286D01*
X156942000Y-27465286D02*
X156989619Y-27417667D01*
X156989619Y-27417667D02*
X156942000Y-27370048D01*
X156942000Y-27370048D02*
X156942000Y-27465286D01*
X157846761Y-28322429D02*
X157751523Y-28370048D01*
X157751523Y-28370048D02*
X157561047Y-28370048D01*
X157561047Y-28370048D02*
X157465809Y-28322429D01*
X157465809Y-28322429D02*
X157418190Y-28274809D01*
X157418190Y-28274809D02*
X157370571Y-28179571D01*
X157370571Y-28179571D02*
X157370571Y-27893857D01*
X157370571Y-27893857D02*
X157418190Y-27798619D01*
X157418190Y-27798619D02*
X157465809Y-27751000D01*
X157465809Y-27751000D02*
X157561047Y-27703381D01*
X157561047Y-27703381D02*
X157751523Y-27703381D01*
X157751523Y-27703381D02*
X157846761Y-27751000D01*
X158275333Y-28370048D02*
X158275333Y-27703381D01*
X158275333Y-27893857D02*
X158322952Y-27798619D01*
X158322952Y-27798619D02*
X158370571Y-27751000D01*
X158370571Y-27751000D02*
X158465809Y-27703381D01*
X158465809Y-27703381D02*
X158561047Y-27703381D01*
X159037238Y-28370048D02*
X158942000Y-28322429D01*
X158942000Y-28322429D02*
X158894381Y-28274809D01*
X158894381Y-28274809D02*
X158846762Y-28179571D01*
X158846762Y-28179571D02*
X158846762Y-27893857D01*
X158846762Y-27893857D02*
X158894381Y-27798619D01*
X158894381Y-27798619D02*
X158942000Y-27751000D01*
X158942000Y-27751000D02*
X159037238Y-27703381D01*
X159037238Y-27703381D02*
X159180095Y-27703381D01*
X159180095Y-27703381D02*
X159275333Y-27751000D01*
X159275333Y-27751000D02*
X159322952Y-27798619D01*
X159322952Y-27798619D02*
X159370571Y-27893857D01*
X159370571Y-27893857D02*
X159370571Y-28179571D01*
X159370571Y-28179571D02*
X159322952Y-28274809D01*
X159322952Y-28274809D02*
X159275333Y-28322429D01*
X159275333Y-28322429D02*
X159180095Y-28370048D01*
X159180095Y-28370048D02*
X159037238Y-28370048D01*
X159799143Y-27703381D02*
X159799143Y-28703381D01*
X159799143Y-27751000D02*
X159894381Y-27703381D01*
X159894381Y-27703381D02*
X160084857Y-27703381D01*
X160084857Y-27703381D02*
X160180095Y-27751000D01*
X160180095Y-27751000D02*
X160227714Y-27798619D01*
X160227714Y-27798619D02*
X160275333Y-27893857D01*
X160275333Y-27893857D02*
X160275333Y-28179571D01*
X160275333Y-28179571D02*
X160227714Y-28274809D01*
X160227714Y-28274809D02*
X160180095Y-28322429D01*
X160180095Y-28322429D02*
X160084857Y-28370048D01*
X160084857Y-28370048D02*
X159894381Y-28370048D01*
X159894381Y-28370048D02*
X159799143Y-28322429D01*
X160703905Y-28370048D02*
X160703905Y-27370048D01*
X161132476Y-28370048D02*
X161132476Y-27846238D01*
X161132476Y-27846238D02*
X161084857Y-27751000D01*
X161084857Y-27751000D02*
X160989619Y-27703381D01*
X160989619Y-27703381D02*
X160846762Y-27703381D01*
X160846762Y-27703381D02*
X160751524Y-27751000D01*
X160751524Y-27751000D02*
X160703905Y-27798619D01*
X161751524Y-28370048D02*
X161656286Y-28322429D01*
X161656286Y-28322429D02*
X161608667Y-28274809D01*
X161608667Y-28274809D02*
X161561048Y-28179571D01*
X161561048Y-28179571D02*
X161561048Y-27893857D01*
X161561048Y-27893857D02*
X161608667Y-27798619D01*
X161608667Y-27798619D02*
X161656286Y-27751000D01*
X161656286Y-27751000D02*
X161751524Y-27703381D01*
X161751524Y-27703381D02*
X161894381Y-27703381D01*
X161894381Y-27703381D02*
X161989619Y-27751000D01*
X161989619Y-27751000D02*
X162037238Y-27798619D01*
X162037238Y-27798619D02*
X162084857Y-27893857D01*
X162084857Y-27893857D02*
X162084857Y-28179571D01*
X162084857Y-28179571D02*
X162037238Y-28274809D01*
X162037238Y-28274809D02*
X161989619Y-28322429D01*
X161989619Y-28322429D02*
X161894381Y-28370048D01*
X161894381Y-28370048D02*
X161751524Y-28370048D01*
X162513429Y-27703381D02*
X162513429Y-28370048D01*
X162513429Y-27798619D02*
X162561048Y-27751000D01*
X162561048Y-27751000D02*
X162656286Y-27703381D01*
X162656286Y-27703381D02*
X162799143Y-27703381D01*
X162799143Y-27703381D02*
X162894381Y-27751000D01*
X162894381Y-27751000D02*
X162942000Y-27846238D01*
X162942000Y-27846238D02*
X162942000Y-28370048D01*
X163799143Y-28322429D02*
X163703905Y-28370048D01*
X163703905Y-28370048D02*
X163513429Y-28370048D01*
X163513429Y-28370048D02*
X163418191Y-28322429D01*
X163418191Y-28322429D02*
X163370572Y-28227190D01*
X163370572Y-28227190D02*
X163370572Y-27846238D01*
X163370572Y-27846238D02*
X163418191Y-27751000D01*
X163418191Y-27751000D02*
X163513429Y-27703381D01*
X163513429Y-27703381D02*
X163703905Y-27703381D01*
X163703905Y-27703381D02*
X163799143Y-27751000D01*
X163799143Y-27751000D02*
X163846762Y-27846238D01*
X163846762Y-27846238D02*
X163846762Y-27941476D01*
X163846762Y-27941476D02*
X163370572Y-28036714D01*
X122730095Y-63873376D02*
X122692000Y-63835280D01*
X122692000Y-63835280D02*
X122615809Y-63720995D01*
X122615809Y-63720995D02*
X122577714Y-63644804D01*
X122577714Y-63644804D02*
X122539619Y-63530519D01*
X122539619Y-63530519D02*
X122501524Y-63340042D01*
X122501524Y-63340042D02*
X122501524Y-63187661D01*
X122501524Y-63187661D02*
X122539619Y-62997185D01*
X122539619Y-62997185D02*
X122577714Y-62882899D01*
X122577714Y-62882899D02*
X122615809Y-62806709D01*
X122615809Y-62806709D02*
X122692000Y-62692423D01*
X122692000Y-62692423D02*
X122730095Y-62654328D01*
X123187238Y-62768614D02*
X123339619Y-62768614D01*
X123339619Y-62768614D02*
X123415809Y-62806709D01*
X123415809Y-62806709D02*
X123492000Y-62882899D01*
X123492000Y-62882899D02*
X123530095Y-63035280D01*
X123530095Y-63035280D02*
X123530095Y-63301947D01*
X123530095Y-63301947D02*
X123492000Y-63454328D01*
X123492000Y-63454328D02*
X123415809Y-63530519D01*
X123415809Y-63530519D02*
X123339619Y-63568614D01*
X123339619Y-63568614D02*
X123187238Y-63568614D01*
X123187238Y-63568614D02*
X123111047Y-63530519D01*
X123111047Y-63530519D02*
X123034857Y-63454328D01*
X123034857Y-63454328D02*
X122996761Y-63301947D01*
X122996761Y-63301947D02*
X122996761Y-63035280D01*
X122996761Y-63035280D02*
X123034857Y-62882899D01*
X123034857Y-62882899D02*
X123111047Y-62806709D01*
X123111047Y-62806709D02*
X123187238Y-62768614D01*
X123872952Y-63035280D02*
X123872952Y-63835280D01*
X123872952Y-63073376D02*
X123949142Y-63035280D01*
X123949142Y-63035280D02*
X124101523Y-63035280D01*
X124101523Y-63035280D02*
X124177714Y-63073376D01*
X124177714Y-63073376D02*
X124215809Y-63111471D01*
X124215809Y-63111471D02*
X124253904Y-63187661D01*
X124253904Y-63187661D02*
X124253904Y-63416233D01*
X124253904Y-63416233D02*
X124215809Y-63492423D01*
X124215809Y-63492423D02*
X124177714Y-63530519D01*
X124177714Y-63530519D02*
X124101523Y-63568614D01*
X124101523Y-63568614D02*
X123949142Y-63568614D01*
X123949142Y-63568614D02*
X123872952Y-63530519D01*
X124482476Y-63035280D02*
X124787238Y-63035280D01*
X124596762Y-62768614D02*
X124596762Y-63454328D01*
X124596762Y-63454328D02*
X124634857Y-63530519D01*
X124634857Y-63530519D02*
X124711047Y-63568614D01*
X124711047Y-63568614D02*
X124787238Y-63568614D01*
X125053905Y-63568614D02*
X125053905Y-63035280D01*
X125053905Y-62768614D02*
X125015809Y-62806709D01*
X125015809Y-62806709D02*
X125053905Y-62844804D01*
X125053905Y-62844804D02*
X125092000Y-62806709D01*
X125092000Y-62806709D02*
X125053905Y-62768614D01*
X125053905Y-62768614D02*
X125053905Y-62844804D01*
X125549142Y-63568614D02*
X125472952Y-63530519D01*
X125472952Y-63530519D02*
X125434857Y-63492423D01*
X125434857Y-63492423D02*
X125396761Y-63416233D01*
X125396761Y-63416233D02*
X125396761Y-63187661D01*
X125396761Y-63187661D02*
X125434857Y-63111471D01*
X125434857Y-63111471D02*
X125472952Y-63073376D01*
X125472952Y-63073376D02*
X125549142Y-63035280D01*
X125549142Y-63035280D02*
X125663428Y-63035280D01*
X125663428Y-63035280D02*
X125739619Y-63073376D01*
X125739619Y-63073376D02*
X125777714Y-63111471D01*
X125777714Y-63111471D02*
X125815809Y-63187661D01*
X125815809Y-63187661D02*
X125815809Y-63416233D01*
X125815809Y-63416233D02*
X125777714Y-63492423D01*
X125777714Y-63492423D02*
X125739619Y-63530519D01*
X125739619Y-63530519D02*
X125663428Y-63568614D01*
X125663428Y-63568614D02*
X125549142Y-63568614D01*
X126158667Y-63035280D02*
X126158667Y-63568614D01*
X126158667Y-63111471D02*
X126196762Y-63073376D01*
X126196762Y-63073376D02*
X126272952Y-63035280D01*
X126272952Y-63035280D02*
X126387238Y-63035280D01*
X126387238Y-63035280D02*
X126463429Y-63073376D01*
X126463429Y-63073376D02*
X126501524Y-63149566D01*
X126501524Y-63149566D02*
X126501524Y-63568614D01*
X127225334Y-63568614D02*
X127225334Y-63149566D01*
X127225334Y-63149566D02*
X127187239Y-63073376D01*
X127187239Y-63073376D02*
X127111048Y-63035280D01*
X127111048Y-63035280D02*
X126958667Y-63035280D01*
X126958667Y-63035280D02*
X126882477Y-63073376D01*
X127225334Y-63530519D02*
X127149143Y-63568614D01*
X127149143Y-63568614D02*
X126958667Y-63568614D01*
X126958667Y-63568614D02*
X126882477Y-63530519D01*
X126882477Y-63530519D02*
X126844381Y-63454328D01*
X126844381Y-63454328D02*
X126844381Y-63378138D01*
X126844381Y-63378138D02*
X126882477Y-63301947D01*
X126882477Y-63301947D02*
X126958667Y-63263852D01*
X126958667Y-63263852D02*
X127149143Y-63263852D01*
X127149143Y-63263852D02*
X127225334Y-63225757D01*
X127720572Y-63568614D02*
X127644382Y-63530519D01*
X127644382Y-63530519D02*
X127606287Y-63454328D01*
X127606287Y-63454328D02*
X127606287Y-62768614D01*
X127949144Y-63873376D02*
X127987239Y-63835280D01*
X127987239Y-63835280D02*
X128063430Y-63720995D01*
X128063430Y-63720995D02*
X128101525Y-63644804D01*
X128101525Y-63644804D02*
X128139620Y-63530519D01*
X128139620Y-63530519D02*
X128177716Y-63340042D01*
X128177716Y-63340042D02*
X128177716Y-63187661D01*
X128177716Y-63187661D02*
X128139620Y-62997185D01*
X128139620Y-62997185D02*
X128101525Y-62882899D01*
X128101525Y-62882899D02*
X128063430Y-62806709D01*
X128063430Y-62806709D02*
X127987239Y-62692423D01*
X127987239Y-62692423D02*
X127949144Y-62654328D01*
X122387238Y-64056569D02*
X122844381Y-64056569D01*
X122615809Y-64856569D02*
X122615809Y-64056569D01*
X123225333Y-64856569D02*
X123149143Y-64818474D01*
X123149143Y-64818474D02*
X123111048Y-64780378D01*
X123111048Y-64780378D02*
X123072952Y-64704188D01*
X123072952Y-64704188D02*
X123072952Y-64475616D01*
X123072952Y-64475616D02*
X123111048Y-64399426D01*
X123111048Y-64399426D02*
X123149143Y-64361331D01*
X123149143Y-64361331D02*
X123225333Y-64323235D01*
X123225333Y-64323235D02*
X123339619Y-64323235D01*
X123339619Y-64323235D02*
X123415810Y-64361331D01*
X123415810Y-64361331D02*
X123453905Y-64399426D01*
X123453905Y-64399426D02*
X123492000Y-64475616D01*
X123492000Y-64475616D02*
X123492000Y-64704188D01*
X123492000Y-64704188D02*
X123453905Y-64780378D01*
X123453905Y-64780378D02*
X123415810Y-64818474D01*
X123415810Y-64818474D02*
X123339619Y-64856569D01*
X123339619Y-64856569D02*
X123225333Y-64856569D01*
X124558667Y-64856569D02*
X124482477Y-64818474D01*
X124482477Y-64818474D02*
X124444382Y-64780378D01*
X124444382Y-64780378D02*
X124406286Y-64704188D01*
X124406286Y-64704188D02*
X124406286Y-64475616D01*
X124406286Y-64475616D02*
X124444382Y-64399426D01*
X124444382Y-64399426D02*
X124482477Y-64361331D01*
X124482477Y-64361331D02*
X124558667Y-64323235D01*
X124558667Y-64323235D02*
X124672953Y-64323235D01*
X124672953Y-64323235D02*
X124749144Y-64361331D01*
X124749144Y-64361331D02*
X124787239Y-64399426D01*
X124787239Y-64399426D02*
X124825334Y-64475616D01*
X124825334Y-64475616D02*
X124825334Y-64704188D01*
X124825334Y-64704188D02*
X124787239Y-64780378D01*
X124787239Y-64780378D02*
X124749144Y-64818474D01*
X124749144Y-64818474D02*
X124672953Y-64856569D01*
X124672953Y-64856569D02*
X124558667Y-64856569D01*
X125511049Y-64323235D02*
X125511049Y-64856569D01*
X125168192Y-64323235D02*
X125168192Y-64742283D01*
X125168192Y-64742283D02*
X125206287Y-64818474D01*
X125206287Y-64818474D02*
X125282477Y-64856569D01*
X125282477Y-64856569D02*
X125396763Y-64856569D01*
X125396763Y-64856569D02*
X125472954Y-64818474D01*
X125472954Y-64818474D02*
X125511049Y-64780378D01*
X125777716Y-64323235D02*
X126082478Y-64323235D01*
X125892002Y-64056569D02*
X125892002Y-64742283D01*
X125892002Y-64742283D02*
X125930097Y-64818474D01*
X125930097Y-64818474D02*
X126006287Y-64856569D01*
X126006287Y-64856569D02*
X126082478Y-64856569D01*
X126311049Y-64818474D02*
X126387240Y-64856569D01*
X126387240Y-64856569D02*
X126539621Y-64856569D01*
X126539621Y-64856569D02*
X126615811Y-64818474D01*
X126615811Y-64818474D02*
X126653907Y-64742283D01*
X126653907Y-64742283D02*
X126653907Y-64704188D01*
X126653907Y-64704188D02*
X126615811Y-64627997D01*
X126615811Y-64627997D02*
X126539621Y-64589902D01*
X126539621Y-64589902D02*
X126425335Y-64589902D01*
X126425335Y-64589902D02*
X126349145Y-64551807D01*
X126349145Y-64551807D02*
X126311049Y-64475616D01*
X126311049Y-64475616D02*
X126311049Y-64437521D01*
X126311049Y-64437521D02*
X126349145Y-64361331D01*
X126349145Y-64361331D02*
X126425335Y-64323235D01*
X126425335Y-64323235D02*
X126539621Y-64323235D01*
X126539621Y-64323235D02*
X126615811Y-64361331D01*
X126996764Y-64856569D02*
X126996764Y-64323235D01*
X126996764Y-64056569D02*
X126958668Y-64094664D01*
X126958668Y-64094664D02*
X126996764Y-64132759D01*
X126996764Y-64132759D02*
X127034859Y-64094664D01*
X127034859Y-64094664D02*
X126996764Y-64056569D01*
X126996764Y-64056569D02*
X126996764Y-64132759D01*
X127720573Y-64856569D02*
X127720573Y-64056569D01*
X127720573Y-64818474D02*
X127644382Y-64856569D01*
X127644382Y-64856569D02*
X127492001Y-64856569D01*
X127492001Y-64856569D02*
X127415811Y-64818474D01*
X127415811Y-64818474D02*
X127377716Y-64780378D01*
X127377716Y-64780378D02*
X127339620Y-64704188D01*
X127339620Y-64704188D02*
X127339620Y-64475616D01*
X127339620Y-64475616D02*
X127377716Y-64399426D01*
X127377716Y-64399426D02*
X127415811Y-64361331D01*
X127415811Y-64361331D02*
X127492001Y-64323235D01*
X127492001Y-64323235D02*
X127644382Y-64323235D01*
X127644382Y-64323235D02*
X127720573Y-64361331D01*
X128406288Y-64818474D02*
X128330097Y-64856569D01*
X128330097Y-64856569D02*
X128177716Y-64856569D01*
X128177716Y-64856569D02*
X128101526Y-64818474D01*
X128101526Y-64818474D02*
X128063430Y-64742283D01*
X128063430Y-64742283D02*
X128063430Y-64437521D01*
X128063430Y-64437521D02*
X128101526Y-64361331D01*
X128101526Y-64361331D02*
X128177716Y-64323235D01*
X128177716Y-64323235D02*
X128330097Y-64323235D01*
X128330097Y-64323235D02*
X128406288Y-64361331D01*
X128406288Y-64361331D02*
X128444383Y-64437521D01*
X128444383Y-64437521D02*
X128444383Y-64513712D01*
X128444383Y-64513712D02*
X128063430Y-64589902D01*
X122501524Y-66144524D02*
X122501524Y-65611190D01*
X122501524Y-65687381D02*
X122539619Y-65649286D01*
X122539619Y-65649286D02*
X122615809Y-65611190D01*
X122615809Y-65611190D02*
X122730095Y-65611190D01*
X122730095Y-65611190D02*
X122806286Y-65649286D01*
X122806286Y-65649286D02*
X122844381Y-65725476D01*
X122844381Y-65725476D02*
X122844381Y-66144524D01*
X122844381Y-65725476D02*
X122882476Y-65649286D01*
X122882476Y-65649286D02*
X122958667Y-65611190D01*
X122958667Y-65611190D02*
X123072952Y-65611190D01*
X123072952Y-65611190D02*
X123149143Y-65649286D01*
X123149143Y-65649286D02*
X123187238Y-65725476D01*
X123187238Y-65725476D02*
X123187238Y-66144524D01*
X123568191Y-66144524D02*
X123568191Y-65611190D01*
X123568191Y-65344524D02*
X123530095Y-65382619D01*
X123530095Y-65382619D02*
X123568191Y-65420714D01*
X123568191Y-65420714D02*
X123606286Y-65382619D01*
X123606286Y-65382619D02*
X123568191Y-65344524D01*
X123568191Y-65344524D02*
X123568191Y-65420714D01*
X124292000Y-66106429D02*
X124215809Y-66144524D01*
X124215809Y-66144524D02*
X124063428Y-66144524D01*
X124063428Y-66144524D02*
X123987238Y-66106429D01*
X123987238Y-66106429D02*
X123949143Y-66068333D01*
X123949143Y-66068333D02*
X123911047Y-65992143D01*
X123911047Y-65992143D02*
X123911047Y-65763571D01*
X123911047Y-65763571D02*
X123949143Y-65687381D01*
X123949143Y-65687381D02*
X123987238Y-65649286D01*
X123987238Y-65649286D02*
X124063428Y-65611190D01*
X124063428Y-65611190D02*
X124215809Y-65611190D01*
X124215809Y-65611190D02*
X124292000Y-65649286D01*
X124634857Y-66144524D02*
X124634857Y-65611190D01*
X124634857Y-65763571D02*
X124672952Y-65687381D01*
X124672952Y-65687381D02*
X124711047Y-65649286D01*
X124711047Y-65649286D02*
X124787238Y-65611190D01*
X124787238Y-65611190D02*
X124863428Y-65611190D01*
X125244380Y-66144524D02*
X125168190Y-66106429D01*
X125168190Y-66106429D02*
X125130095Y-66068333D01*
X125130095Y-66068333D02*
X125091999Y-65992143D01*
X125091999Y-65992143D02*
X125091999Y-65763571D01*
X125091999Y-65763571D02*
X125130095Y-65687381D01*
X125130095Y-65687381D02*
X125168190Y-65649286D01*
X125168190Y-65649286D02*
X125244380Y-65611190D01*
X125244380Y-65611190D02*
X125358666Y-65611190D01*
X125358666Y-65611190D02*
X125434857Y-65649286D01*
X125434857Y-65649286D02*
X125472952Y-65687381D01*
X125472952Y-65687381D02*
X125511047Y-65763571D01*
X125511047Y-65763571D02*
X125511047Y-65992143D01*
X125511047Y-65992143D02*
X125472952Y-66068333D01*
X125472952Y-66068333D02*
X125434857Y-66106429D01*
X125434857Y-66106429D02*
X125358666Y-66144524D01*
X125358666Y-66144524D02*
X125244380Y-66144524D01*
X125853905Y-65611190D02*
X125853905Y-66411190D01*
X125853905Y-65649286D02*
X125930095Y-65611190D01*
X125930095Y-65611190D02*
X126082476Y-65611190D01*
X126082476Y-65611190D02*
X126158667Y-65649286D01*
X126158667Y-65649286D02*
X126196762Y-65687381D01*
X126196762Y-65687381D02*
X126234857Y-65763571D01*
X126234857Y-65763571D02*
X126234857Y-65992143D01*
X126234857Y-65992143D02*
X126196762Y-66068333D01*
X126196762Y-66068333D02*
X126158667Y-66106429D01*
X126158667Y-66106429D02*
X126082476Y-66144524D01*
X126082476Y-66144524D02*
X125930095Y-66144524D01*
X125930095Y-66144524D02*
X125853905Y-66106429D01*
X126577715Y-66144524D02*
X126577715Y-65344524D01*
X126920572Y-66144524D02*
X126920572Y-65725476D01*
X126920572Y-65725476D02*
X126882477Y-65649286D01*
X126882477Y-65649286D02*
X126806286Y-65611190D01*
X126806286Y-65611190D02*
X126692000Y-65611190D01*
X126692000Y-65611190D02*
X126615810Y-65649286D01*
X126615810Y-65649286D02*
X126577715Y-65687381D01*
X127415810Y-66144524D02*
X127339620Y-66106429D01*
X127339620Y-66106429D02*
X127301525Y-66068333D01*
X127301525Y-66068333D02*
X127263429Y-65992143D01*
X127263429Y-65992143D02*
X127263429Y-65763571D01*
X127263429Y-65763571D02*
X127301525Y-65687381D01*
X127301525Y-65687381D02*
X127339620Y-65649286D01*
X127339620Y-65649286D02*
X127415810Y-65611190D01*
X127415810Y-65611190D02*
X127530096Y-65611190D01*
X127530096Y-65611190D02*
X127606287Y-65649286D01*
X127606287Y-65649286D02*
X127644382Y-65687381D01*
X127644382Y-65687381D02*
X127682477Y-65763571D01*
X127682477Y-65763571D02*
X127682477Y-65992143D01*
X127682477Y-65992143D02*
X127644382Y-66068333D01*
X127644382Y-66068333D02*
X127606287Y-66106429D01*
X127606287Y-66106429D02*
X127530096Y-66144524D01*
X127530096Y-66144524D02*
X127415810Y-66144524D01*
X128025335Y-65611190D02*
X128025335Y-66144524D01*
X128025335Y-65687381D02*
X128063430Y-65649286D01*
X128063430Y-65649286D02*
X128139620Y-65611190D01*
X128139620Y-65611190D02*
X128253906Y-65611190D01*
X128253906Y-65611190D02*
X128330097Y-65649286D01*
X128330097Y-65649286D02*
X128368192Y-65725476D01*
X128368192Y-65725476D02*
X128368192Y-66144524D01*
X129053907Y-66106429D02*
X128977716Y-66144524D01*
X128977716Y-66144524D02*
X128825335Y-66144524D01*
X128825335Y-66144524D02*
X128749145Y-66106429D01*
X128749145Y-66106429D02*
X128711049Y-66030238D01*
X128711049Y-66030238D02*
X128711049Y-65725476D01*
X128711049Y-65725476D02*
X128749145Y-65649286D01*
X128749145Y-65649286D02*
X128825335Y-65611190D01*
X128825335Y-65611190D02*
X128977716Y-65611190D01*
X128977716Y-65611190D02*
X129053907Y-65649286D01*
X129053907Y-65649286D02*
X129092002Y-65725476D01*
X129092002Y-65725476D02*
X129092002Y-65801667D01*
X129092002Y-65801667D02*
X128711049Y-65877857D01*
D12*
X130135922Y-71977962D02*
X131659732Y-71977962D01*
X166135922Y-71977962D02*
X167659732Y-71977962D01*
X166897827Y-72739867D02*
X166897827Y-71216057D01*
X176240583Y-41400197D02*
X177240583Y-41400197D01*
X176764393Y-41400197D02*
X176764393Y-41971625D01*
X176240583Y-41971625D02*
X177240583Y-41971625D01*
X176764393Y-42447816D02*
X176764393Y-42781149D01*
X176240583Y-42924006D02*
X176240583Y-42447816D01*
X176240583Y-42447816D02*
X177240583Y-42447816D01*
X177240583Y-42447816D02*
X177240583Y-42924006D01*
X176240583Y-43828768D02*
X176240583Y-43352578D01*
X176240583Y-43352578D02*
X177240583Y-43352578D01*
X176240583Y-44162102D02*
X177240583Y-44162102D01*
X177240583Y-44162102D02*
X176526298Y-44495435D01*
X176526298Y-44495435D02*
X177240583Y-44828768D01*
X177240583Y-44828768D02*
X176240583Y-44828768D01*
X177240583Y-45304959D02*
X176431060Y-45304959D01*
X176431060Y-45304959D02*
X176335822Y-45352578D01*
X176335822Y-45352578D02*
X176288203Y-45400197D01*
X176288203Y-45400197D02*
X176240583Y-45495435D01*
X176240583Y-45495435D02*
X176240583Y-45685911D01*
X176240583Y-45685911D02*
X176288203Y-45781149D01*
X176288203Y-45781149D02*
X176335822Y-45828768D01*
X176335822Y-45828768D02*
X176431060Y-45876387D01*
X176431060Y-45876387D02*
X177240583Y-45876387D01*
X177240583Y-46209721D02*
X177240583Y-46781149D01*
X176240583Y-46495435D02*
X177240583Y-46495435D01*
X176764393Y-47114483D02*
X176764393Y-47447816D01*
X176240583Y-47590673D02*
X176240583Y-47114483D01*
X176240583Y-47114483D02*
X177240583Y-47114483D01*
X177240583Y-47114483D02*
X177240583Y-47590673D01*
X176288203Y-48733531D02*
X176240583Y-48876388D01*
X176240583Y-48876388D02*
X176240583Y-49114483D01*
X176240583Y-49114483D02*
X176288203Y-49209721D01*
X176288203Y-49209721D02*
X176335822Y-49257340D01*
X176335822Y-49257340D02*
X176431060Y-49304959D01*
X176431060Y-49304959D02*
X176526298Y-49304959D01*
X176526298Y-49304959D02*
X176621536Y-49257340D01*
X176621536Y-49257340D02*
X176669155Y-49209721D01*
X176669155Y-49209721D02*
X176716774Y-49114483D01*
X176716774Y-49114483D02*
X176764393Y-48924007D01*
X176764393Y-48924007D02*
X176812012Y-48828769D01*
X176812012Y-48828769D02*
X176859631Y-48781150D01*
X176859631Y-48781150D02*
X176954869Y-48733531D01*
X176954869Y-48733531D02*
X177050107Y-48733531D01*
X177050107Y-48733531D02*
X177145345Y-48781150D01*
X177145345Y-48781150D02*
X177192964Y-48828769D01*
X177192964Y-48828769D02*
X177240583Y-48924007D01*
X177240583Y-48924007D02*
X177240583Y-49162102D01*
X177240583Y-49162102D02*
X177192964Y-49304959D01*
X176907250Y-49733531D02*
X175907250Y-49733531D01*
X176859631Y-49733531D02*
X176907250Y-49828769D01*
X176907250Y-49828769D02*
X176907250Y-50019245D01*
X176907250Y-50019245D02*
X176859631Y-50114483D01*
X176859631Y-50114483D02*
X176812012Y-50162102D01*
X176812012Y-50162102D02*
X176716774Y-50209721D01*
X176716774Y-50209721D02*
X176431060Y-50209721D01*
X176431060Y-50209721D02*
X176335822Y-50162102D01*
X176335822Y-50162102D02*
X176288203Y-50114483D01*
X176288203Y-50114483D02*
X176240583Y-50019245D01*
X176240583Y-50019245D02*
X176240583Y-49828769D01*
X176240583Y-49828769D02*
X176288203Y-49733531D01*
X176288203Y-51019245D02*
X176240583Y-50924007D01*
X176240583Y-50924007D02*
X176240583Y-50733531D01*
X176240583Y-50733531D02*
X176288203Y-50638293D01*
X176288203Y-50638293D02*
X176383441Y-50590674D01*
X176383441Y-50590674D02*
X176764393Y-50590674D01*
X176764393Y-50590674D02*
X176859631Y-50638293D01*
X176859631Y-50638293D02*
X176907250Y-50733531D01*
X176907250Y-50733531D02*
X176907250Y-50924007D01*
X176907250Y-50924007D02*
X176859631Y-51019245D01*
X176859631Y-51019245D02*
X176764393Y-51066864D01*
X176764393Y-51066864D02*
X176669155Y-51066864D01*
X176669155Y-51066864D02*
X176573917Y-50590674D01*
X176240583Y-51924007D02*
X176764393Y-51924007D01*
X176764393Y-51924007D02*
X176859631Y-51876388D01*
X176859631Y-51876388D02*
X176907250Y-51781150D01*
X176907250Y-51781150D02*
X176907250Y-51590674D01*
X176907250Y-51590674D02*
X176859631Y-51495436D01*
X176288203Y-51924007D02*
X176240583Y-51828769D01*
X176240583Y-51828769D02*
X176240583Y-51590674D01*
X176240583Y-51590674D02*
X176288203Y-51495436D01*
X176288203Y-51495436D02*
X176383441Y-51447817D01*
X176383441Y-51447817D02*
X176478679Y-51447817D01*
X176478679Y-51447817D02*
X176573917Y-51495436D01*
X176573917Y-51495436D02*
X176621536Y-51590674D01*
X176621536Y-51590674D02*
X176621536Y-51828769D01*
X176621536Y-51828769D02*
X176669155Y-51924007D01*
X176240583Y-52400198D02*
X177240583Y-52400198D01*
X176621536Y-52495436D02*
X176240583Y-52781150D01*
X176907250Y-52781150D02*
X176526298Y-52400198D01*
X176288203Y-53590674D02*
X176240583Y-53495436D01*
X176240583Y-53495436D02*
X176240583Y-53304960D01*
X176240583Y-53304960D02*
X176288203Y-53209722D01*
X176288203Y-53209722D02*
X176383441Y-53162103D01*
X176383441Y-53162103D02*
X176764393Y-53162103D01*
X176764393Y-53162103D02*
X176859631Y-53209722D01*
X176859631Y-53209722D02*
X176907250Y-53304960D01*
X176907250Y-53304960D02*
X176907250Y-53495436D01*
X176907250Y-53495436D02*
X176859631Y-53590674D01*
X176859631Y-53590674D02*
X176764393Y-53638293D01*
X176764393Y-53638293D02*
X176669155Y-53638293D01*
X176669155Y-53638293D02*
X176573917Y-53162103D01*
X176240583Y-54066865D02*
X176907250Y-54066865D01*
X176716774Y-54066865D02*
X176812012Y-54114484D01*
X176812012Y-54114484D02*
X176859631Y-54162103D01*
X176859631Y-54162103D02*
X176907250Y-54257341D01*
X176907250Y-54257341D02*
X176907250Y-54352579D01*
X176764393Y-55781151D02*
X176716774Y-55924008D01*
X176716774Y-55924008D02*
X176669155Y-55971627D01*
X176669155Y-55971627D02*
X176573917Y-56019246D01*
X176573917Y-56019246D02*
X176431060Y-56019246D01*
X176431060Y-56019246D02*
X176335822Y-55971627D01*
X176335822Y-55971627D02*
X176288203Y-55924008D01*
X176288203Y-55924008D02*
X176240583Y-55828770D01*
X176240583Y-55828770D02*
X176240583Y-55447818D01*
X176240583Y-55447818D02*
X177240583Y-55447818D01*
X177240583Y-55447818D02*
X177240583Y-55781151D01*
X177240583Y-55781151D02*
X177192964Y-55876389D01*
X177192964Y-55876389D02*
X177145345Y-55924008D01*
X177145345Y-55924008D02*
X177050107Y-55971627D01*
X177050107Y-55971627D02*
X176954869Y-55971627D01*
X176954869Y-55971627D02*
X176859631Y-55924008D01*
X176859631Y-55924008D02*
X176812012Y-55876389D01*
X176812012Y-55876389D02*
X176764393Y-55781151D01*
X176764393Y-55781151D02*
X176764393Y-55447818D01*
X176240583Y-56590675D02*
X176288203Y-56495437D01*
X176288203Y-56495437D02*
X176335822Y-56447818D01*
X176335822Y-56447818D02*
X176431060Y-56400199D01*
X176431060Y-56400199D02*
X176716774Y-56400199D01*
X176716774Y-56400199D02*
X176812012Y-56447818D01*
X176812012Y-56447818D02*
X176859631Y-56495437D01*
X176859631Y-56495437D02*
X176907250Y-56590675D01*
X176907250Y-56590675D02*
X176907250Y-56733532D01*
X176907250Y-56733532D02*
X176859631Y-56828770D01*
X176859631Y-56828770D02*
X176812012Y-56876389D01*
X176812012Y-56876389D02*
X176716774Y-56924008D01*
X176716774Y-56924008D02*
X176431060Y-56924008D01*
X176431060Y-56924008D02*
X176335822Y-56876389D01*
X176335822Y-56876389D02*
X176288203Y-56828770D01*
X176288203Y-56828770D02*
X176240583Y-56733532D01*
X176240583Y-56733532D02*
X176240583Y-56590675D01*
X176240583Y-57781151D02*
X176764393Y-57781151D01*
X176764393Y-57781151D02*
X176859631Y-57733532D01*
X176859631Y-57733532D02*
X176907250Y-57638294D01*
X176907250Y-57638294D02*
X176907250Y-57447818D01*
X176907250Y-57447818D02*
X176859631Y-57352580D01*
X176288203Y-57781151D02*
X176240583Y-57685913D01*
X176240583Y-57685913D02*
X176240583Y-57447818D01*
X176240583Y-57447818D02*
X176288203Y-57352580D01*
X176288203Y-57352580D02*
X176383441Y-57304961D01*
X176383441Y-57304961D02*
X176478679Y-57304961D01*
X176478679Y-57304961D02*
X176573917Y-57352580D01*
X176573917Y-57352580D02*
X176621536Y-57447818D01*
X176621536Y-57447818D02*
X176621536Y-57685913D01*
X176621536Y-57685913D02*
X176669155Y-57781151D01*
X176240583Y-58257342D02*
X176907250Y-58257342D01*
X176716774Y-58257342D02*
X176812012Y-58304961D01*
X176812012Y-58304961D02*
X176859631Y-58352580D01*
X176859631Y-58352580D02*
X176907250Y-58447818D01*
X176907250Y-58447818D02*
X176907250Y-58543056D01*
X176240583Y-59304961D02*
X177240583Y-59304961D01*
X176288203Y-59304961D02*
X176240583Y-59209723D01*
X176240583Y-59209723D02*
X176240583Y-59019247D01*
X176240583Y-59019247D02*
X176288203Y-58924009D01*
X176288203Y-58924009D02*
X176335822Y-58876390D01*
X176335822Y-58876390D02*
X176431060Y-58828771D01*
X176431060Y-58828771D02*
X176716774Y-58828771D01*
X176716774Y-58828771D02*
X176812012Y-58876390D01*
X176812012Y-58876390D02*
X176859631Y-58924009D01*
X176859631Y-58924009D02*
X176907250Y-59019247D01*
X176907250Y-59019247D02*
X176907250Y-59209723D01*
X176907250Y-59209723D02*
X176859631Y-59304961D01*
X176335822Y-61114485D02*
X176288203Y-61066866D01*
X176288203Y-61066866D02*
X176240583Y-60924009D01*
X176240583Y-60924009D02*
X176240583Y-60828771D01*
X176240583Y-60828771D02*
X176288203Y-60685914D01*
X176288203Y-60685914D02*
X176383441Y-60590676D01*
X176383441Y-60590676D02*
X176478679Y-60543057D01*
X176478679Y-60543057D02*
X176669155Y-60495438D01*
X176669155Y-60495438D02*
X176812012Y-60495438D01*
X176812012Y-60495438D02*
X177002488Y-60543057D01*
X177002488Y-60543057D02*
X177097726Y-60590676D01*
X177097726Y-60590676D02*
X177192964Y-60685914D01*
X177192964Y-60685914D02*
X177240583Y-60828771D01*
X177240583Y-60828771D02*
X177240583Y-60924009D01*
X177240583Y-60924009D02*
X177192964Y-61066866D01*
X177192964Y-61066866D02*
X177145345Y-61114485D01*
X174630639Y-41971625D02*
X175106830Y-41638292D01*
X174630639Y-41400197D02*
X175630639Y-41400197D01*
X175630639Y-41400197D02*
X175630639Y-41781149D01*
X175630639Y-41781149D02*
X175583020Y-41876387D01*
X175583020Y-41876387D02*
X175535401Y-41924006D01*
X175535401Y-41924006D02*
X175440163Y-41971625D01*
X175440163Y-41971625D02*
X175297306Y-41971625D01*
X175297306Y-41971625D02*
X175202068Y-41924006D01*
X175202068Y-41924006D02*
X175154449Y-41876387D01*
X175154449Y-41876387D02*
X175106830Y-41781149D01*
X175106830Y-41781149D02*
X175106830Y-41400197D01*
X174678259Y-42781149D02*
X174630639Y-42685911D01*
X174630639Y-42685911D02*
X174630639Y-42495435D01*
X174630639Y-42495435D02*
X174678259Y-42400197D01*
X174678259Y-42400197D02*
X174773497Y-42352578D01*
X174773497Y-42352578D02*
X175154449Y-42352578D01*
X175154449Y-42352578D02*
X175249687Y-42400197D01*
X175249687Y-42400197D02*
X175297306Y-42495435D01*
X175297306Y-42495435D02*
X175297306Y-42685911D01*
X175297306Y-42685911D02*
X175249687Y-42781149D01*
X175249687Y-42781149D02*
X175154449Y-42828768D01*
X175154449Y-42828768D02*
X175059211Y-42828768D01*
X175059211Y-42828768D02*
X174963973Y-42352578D01*
X175297306Y-43162102D02*
X174630639Y-43400197D01*
X174630639Y-43400197D02*
X175297306Y-43638292D01*
X174725878Y-44019245D02*
X174678259Y-44066864D01*
X174678259Y-44066864D02*
X174630639Y-44019245D01*
X174630639Y-44019245D02*
X174678259Y-43971626D01*
X174678259Y-43971626D02*
X174725878Y-44019245D01*
X174725878Y-44019245D02*
X174630639Y-44019245D01*
X174916354Y-45209721D02*
X174916354Y-45685911D01*
X174630639Y-45114483D02*
X175630639Y-45447816D01*
X175630639Y-45447816D02*
X174630639Y-45781149D01*
X174249687Y-47162102D02*
X174297306Y-47114483D01*
X174297306Y-47114483D02*
X174440163Y-47019245D01*
X174440163Y-47019245D02*
X174535401Y-46971626D01*
X174535401Y-46971626D02*
X174678259Y-46924007D01*
X174678259Y-46924007D02*
X174916354Y-46876388D01*
X174916354Y-46876388D02*
X175106830Y-46876388D01*
X175106830Y-46876388D02*
X175344925Y-46924007D01*
X175344925Y-46924007D02*
X175487782Y-46971626D01*
X175487782Y-46971626D02*
X175583020Y-47019245D01*
X175583020Y-47019245D02*
X175725878Y-47114483D01*
X175725878Y-47114483D02*
X175773497Y-47162102D01*
X175630639Y-47447817D02*
X175630639Y-48066864D01*
X175630639Y-48066864D02*
X175249687Y-47733531D01*
X175249687Y-47733531D02*
X175249687Y-47876388D01*
X175249687Y-47876388D02*
X175202068Y-47971626D01*
X175202068Y-47971626D02*
X175154449Y-48019245D01*
X175154449Y-48019245D02*
X175059211Y-48066864D01*
X175059211Y-48066864D02*
X174821116Y-48066864D01*
X174821116Y-48066864D02*
X174725878Y-48019245D01*
X174725878Y-48019245D02*
X174678259Y-47971626D01*
X174678259Y-47971626D02*
X174630639Y-47876388D01*
X174630639Y-47876388D02*
X174630639Y-47590674D01*
X174630639Y-47590674D02*
X174678259Y-47495436D01*
X174678259Y-47495436D02*
X174725878Y-47447817D01*
X175678259Y-49209721D02*
X174392544Y-48352579D01*
X175297306Y-49971626D02*
X174630639Y-49971626D01*
X175678259Y-49733531D02*
X174963973Y-49495436D01*
X174963973Y-49495436D02*
X174963973Y-50114483D01*
X175678259Y-51209721D02*
X174392544Y-50352579D01*
X175535401Y-51495436D02*
X175583020Y-51543055D01*
X175583020Y-51543055D02*
X175630639Y-51638293D01*
X175630639Y-51638293D02*
X175630639Y-51876388D01*
X175630639Y-51876388D02*
X175583020Y-51971626D01*
X175583020Y-51971626D02*
X175535401Y-52019245D01*
X175535401Y-52019245D02*
X175440163Y-52066864D01*
X175440163Y-52066864D02*
X175344925Y-52066864D01*
X175344925Y-52066864D02*
X175202068Y-52019245D01*
X175202068Y-52019245D02*
X174630639Y-51447817D01*
X174630639Y-51447817D02*
X174630639Y-52066864D01*
X175630639Y-52971626D02*
X175630639Y-52495436D01*
X175630639Y-52495436D02*
X175154449Y-52447817D01*
X175154449Y-52447817D02*
X175202068Y-52495436D01*
X175202068Y-52495436D02*
X175249687Y-52590674D01*
X175249687Y-52590674D02*
X175249687Y-52828769D01*
X175249687Y-52828769D02*
X175202068Y-52924007D01*
X175202068Y-52924007D02*
X175154449Y-52971626D01*
X175154449Y-52971626D02*
X175059211Y-53019245D01*
X175059211Y-53019245D02*
X174821116Y-53019245D01*
X174821116Y-53019245D02*
X174725878Y-52971626D01*
X174725878Y-52971626D02*
X174678259Y-52924007D01*
X174678259Y-52924007D02*
X174630639Y-52828769D01*
X174630639Y-52828769D02*
X174630639Y-52590674D01*
X174630639Y-52590674D02*
X174678259Y-52495436D01*
X174678259Y-52495436D02*
X174725878Y-52447817D01*
X174249687Y-53352579D02*
X174297306Y-53400198D01*
X174297306Y-53400198D02*
X174440163Y-53495436D01*
X174440163Y-53495436D02*
X174535401Y-53543055D01*
X174535401Y-53543055D02*
X174678259Y-53590674D01*
X174678259Y-53590674D02*
X174916354Y-53638293D01*
X174916354Y-53638293D02*
X175106830Y-53638293D01*
X175106830Y-53638293D02*
X175344925Y-53590674D01*
X175344925Y-53590674D02*
X175487782Y-53543055D01*
X175487782Y-53543055D02*
X175583020Y-53495436D01*
X175583020Y-53495436D02*
X175725878Y-53400198D01*
X175725878Y-53400198D02*
X175773497Y-53352579D01*
D11*
X155656286Y-73120048D02*
X156227714Y-73120048D01*
X155942000Y-74120048D02*
X155942000Y-73120048D01*
X156703905Y-74120048D02*
X156608667Y-74072429D01*
X156608667Y-74072429D02*
X156561048Y-74024809D01*
X156561048Y-74024809D02*
X156513429Y-73929571D01*
X156513429Y-73929571D02*
X156513429Y-73643857D01*
X156513429Y-73643857D02*
X156561048Y-73548619D01*
X156561048Y-73548619D02*
X156608667Y-73501000D01*
X156608667Y-73501000D02*
X156703905Y-73453381D01*
X156703905Y-73453381D02*
X156846762Y-73453381D01*
X156846762Y-73453381D02*
X156942000Y-73501000D01*
X156942000Y-73501000D02*
X156989619Y-73548619D01*
X156989619Y-73548619D02*
X157037238Y-73643857D01*
X157037238Y-73643857D02*
X157037238Y-73929571D01*
X157037238Y-73929571D02*
X156989619Y-74024809D01*
X156989619Y-74024809D02*
X156942000Y-74072429D01*
X156942000Y-74072429D02*
X156846762Y-74120048D01*
X156846762Y-74120048D02*
X156703905Y-74120048D01*
X158799143Y-74024809D02*
X158751524Y-74072429D01*
X158751524Y-74072429D02*
X158608667Y-74120048D01*
X158608667Y-74120048D02*
X158513429Y-74120048D01*
X158513429Y-74120048D02*
X158370572Y-74072429D01*
X158370572Y-74072429D02*
X158275334Y-73977190D01*
X158275334Y-73977190D02*
X158227715Y-73881952D01*
X158227715Y-73881952D02*
X158180096Y-73691476D01*
X158180096Y-73691476D02*
X158180096Y-73548619D01*
X158180096Y-73548619D02*
X158227715Y-73358143D01*
X158227715Y-73358143D02*
X158275334Y-73262905D01*
X158275334Y-73262905D02*
X158370572Y-73167667D01*
X158370572Y-73167667D02*
X158513429Y-73120048D01*
X158513429Y-73120048D02*
X158608667Y-73120048D01*
X158608667Y-73120048D02*
X158751524Y-73167667D01*
X158751524Y-73167667D02*
X158799143Y-73215286D01*
X159227715Y-74120048D02*
X159227715Y-73453381D01*
X159227715Y-73643857D02*
X159275334Y-73548619D01*
X159275334Y-73548619D02*
X159322953Y-73501000D01*
X159322953Y-73501000D02*
X159418191Y-73453381D01*
X159418191Y-73453381D02*
X159513429Y-73453381D01*
X160275334Y-74120048D02*
X160275334Y-73596238D01*
X160275334Y-73596238D02*
X160227715Y-73501000D01*
X160227715Y-73501000D02*
X160132477Y-73453381D01*
X160132477Y-73453381D02*
X159942001Y-73453381D01*
X159942001Y-73453381D02*
X159846763Y-73501000D01*
X160275334Y-74072429D02*
X160180096Y-74120048D01*
X160180096Y-74120048D02*
X159942001Y-74120048D01*
X159942001Y-74120048D02*
X159846763Y-74072429D01*
X159846763Y-74072429D02*
X159799144Y-73977190D01*
X159799144Y-73977190D02*
X159799144Y-73881952D01*
X159799144Y-73881952D02*
X159846763Y-73786714D01*
X159846763Y-73786714D02*
X159942001Y-73739095D01*
X159942001Y-73739095D02*
X160180096Y-73739095D01*
X160180096Y-73739095D02*
X160275334Y-73691476D01*
X161180096Y-74120048D02*
X161180096Y-73120048D01*
X161180096Y-74072429D02*
X161084858Y-74120048D01*
X161084858Y-74120048D02*
X160894382Y-74120048D01*
X160894382Y-74120048D02*
X160799144Y-74072429D01*
X160799144Y-74072429D02*
X160751525Y-74024809D01*
X160751525Y-74024809D02*
X160703906Y-73929571D01*
X160703906Y-73929571D02*
X160703906Y-73643857D01*
X160703906Y-73643857D02*
X160751525Y-73548619D01*
X160751525Y-73548619D02*
X160799144Y-73501000D01*
X160799144Y-73501000D02*
X160894382Y-73453381D01*
X160894382Y-73453381D02*
X161084858Y-73453381D01*
X161084858Y-73453381D02*
X161180096Y-73501000D01*
X161799144Y-74120048D02*
X161703906Y-74072429D01*
X161703906Y-74072429D02*
X161656287Y-73977190D01*
X161656287Y-73977190D02*
X161656287Y-73120048D01*
X162561049Y-74072429D02*
X162465811Y-74120048D01*
X162465811Y-74120048D02*
X162275335Y-74120048D01*
X162275335Y-74120048D02*
X162180097Y-74072429D01*
X162180097Y-74072429D02*
X162132478Y-73977190D01*
X162132478Y-73977190D02*
X162132478Y-73596238D01*
X162132478Y-73596238D02*
X162180097Y-73501000D01*
X162180097Y-73501000D02*
X162275335Y-73453381D01*
X162275335Y-73453381D02*
X162465811Y-73453381D01*
X162465811Y-73453381D02*
X162561049Y-73501000D01*
X162561049Y-73501000D02*
X162608668Y-73596238D01*
X162608668Y-73596238D02*
X162608668Y-73691476D01*
X162608668Y-73691476D02*
X162132478Y-73786714D01*
X148128423Y-15813327D02*
X148128423Y-16622850D01*
X148128423Y-16622850D02*
X148176042Y-16718088D01*
X148176042Y-16718088D02*
X148223661Y-16765708D01*
X148223661Y-16765708D02*
X148318899Y-16813327D01*
X148318899Y-16813327D02*
X148509375Y-16813327D01*
X148509375Y-16813327D02*
X148604613Y-16765708D01*
X148604613Y-16765708D02*
X148652232Y-16718088D01*
X148652232Y-16718088D02*
X148699851Y-16622850D01*
X148699851Y-16622850D02*
X148699851Y-15813327D01*
X149318899Y-16241898D02*
X149223661Y-16194279D01*
X149223661Y-16194279D02*
X149176042Y-16146660D01*
X149176042Y-16146660D02*
X149128423Y-16051422D01*
X149128423Y-16051422D02*
X149128423Y-16003803D01*
X149128423Y-16003803D02*
X149176042Y-15908565D01*
X149176042Y-15908565D02*
X149223661Y-15860946D01*
X149223661Y-15860946D02*
X149318899Y-15813327D01*
X149318899Y-15813327D02*
X149509375Y-15813327D01*
X149509375Y-15813327D02*
X149604613Y-15860946D01*
X149604613Y-15860946D02*
X149652232Y-15908565D01*
X149652232Y-15908565D02*
X149699851Y-16003803D01*
X149699851Y-16003803D02*
X149699851Y-16051422D01*
X149699851Y-16051422D02*
X149652232Y-16146660D01*
X149652232Y-16146660D02*
X149604613Y-16194279D01*
X149604613Y-16194279D02*
X149509375Y-16241898D01*
X149509375Y-16241898D02*
X149318899Y-16241898D01*
X149318899Y-16241898D02*
X149223661Y-16289517D01*
X149223661Y-16289517D02*
X149176042Y-16337136D01*
X149176042Y-16337136D02*
X149128423Y-16432374D01*
X149128423Y-16432374D02*
X149128423Y-16622850D01*
X149128423Y-16622850D02*
X149176042Y-16718088D01*
X149176042Y-16718088D02*
X149223661Y-16765708D01*
X149223661Y-16765708D02*
X149318899Y-16813327D01*
X149318899Y-16813327D02*
X149509375Y-16813327D01*
X149509375Y-16813327D02*
X149604613Y-16765708D01*
X149604613Y-16765708D02*
X149652232Y-16718088D01*
X149652232Y-16718088D02*
X149699851Y-16622850D01*
X149699851Y-16622850D02*
X149699851Y-16432374D01*
X149699851Y-16432374D02*
X149652232Y-16337136D01*
X149652232Y-16337136D02*
X149604613Y-16289517D01*
X149604613Y-16289517D02*
X149509375Y-16241898D01*
D13*
%TO.C,J7*%
X112685259Y-39687629D02*
X124405259Y-39687629D01*
X112685259Y-50997629D02*
X112685259Y-39687629D01*
X112685259Y-50997629D02*
X112685259Y-62307629D01*
X112685259Y-62307629D02*
X124405259Y-62307629D01*
X113295259Y-41997629D02*
X113295259Y-42497629D01*
X113295259Y-42497629D02*
X118795259Y-42497629D01*
X113295259Y-44497629D02*
X113295259Y-44997629D01*
X113295259Y-44997629D02*
X118795259Y-44997629D01*
X113295259Y-46997629D02*
X113295259Y-47497629D01*
X113295259Y-47497629D02*
X118795259Y-47497629D01*
X113295259Y-49497629D02*
X113295259Y-49997629D01*
X113295259Y-49997629D02*
X118795259Y-49997629D01*
X113295259Y-51997629D02*
X113295259Y-52497629D01*
X113295259Y-52497629D02*
X118795259Y-52497629D01*
X113295259Y-54497629D02*
X113295259Y-54997629D01*
X113295259Y-54997629D02*
X118795259Y-54997629D01*
X113295259Y-56997629D02*
X113295259Y-57497629D01*
X113295259Y-57497629D02*
X118795259Y-57497629D01*
X113295259Y-59497629D02*
X113295259Y-59997629D01*
X113295259Y-59997629D02*
X118795259Y-59997629D01*
X118795259Y-41997629D02*
X113295259Y-41997629D01*
X118795259Y-42497629D02*
X118795259Y-41997629D01*
X118795259Y-44497629D02*
X113295259Y-44497629D01*
X118795259Y-44997629D02*
X118795259Y-44497629D01*
X118795259Y-46997629D02*
X113295259Y-46997629D01*
X118795259Y-47497629D02*
X118795259Y-46997629D01*
X118795259Y-49497629D02*
X113295259Y-49497629D01*
X118795259Y-49997629D02*
X118795259Y-49497629D01*
X118795259Y-51997629D02*
X113295259Y-51997629D01*
X118795259Y-52497629D02*
X118795259Y-51997629D01*
X118795259Y-54497629D02*
X113295259Y-54497629D01*
X118795259Y-54997629D02*
X118795259Y-54497629D01*
X118795259Y-56997629D02*
X113295259Y-56997629D01*
X118795259Y-57497629D02*
X118795259Y-56997629D01*
X118795259Y-59497629D02*
X113295259Y-59497629D01*
X118795259Y-59997629D02*
X118795259Y-59497629D01*
X119905259Y-41107629D02*
X119905259Y-50997629D01*
X119905259Y-60887629D02*
X119905259Y-50997629D01*
X123495259Y-42247629D02*
X124095259Y-41947629D01*
X124095259Y-41947629D02*
X124095259Y-42547629D01*
X124095259Y-42547629D02*
X123495259Y-42247629D01*
X124405259Y-39687629D02*
X124405259Y-41107629D01*
X124405259Y-41107629D02*
X119905259Y-41107629D01*
X124405259Y-60887629D02*
X119905259Y-60887629D01*
X124405259Y-62307629D02*
X124405259Y-60887629D01*
D11*
%TO.C,U8*%
X149430897Y-18105908D02*
G75*
G02*
X147849759Y-18105908I-790569J0D01*
G01*
X147849759Y-18105908D02*
G75*
G02*
X149430897Y-18105908I790569J0D01*
G01*
D13*
%TO.C,J5*%
X137185259Y-74837629D02*
X138605259Y-74837629D01*
X137185259Y-86557629D02*
X137185259Y-74837629D01*
X138605259Y-74837629D02*
X138605259Y-79337629D01*
X138605259Y-79337629D02*
X148495259Y-79337629D01*
X139445259Y-75147629D02*
X140045259Y-75147629D01*
X139495259Y-80447629D02*
X139495259Y-85947629D01*
X139495259Y-85947629D02*
X139995259Y-85947629D01*
X139745259Y-75747629D02*
X139445259Y-75147629D01*
X139995259Y-80447629D02*
X139495259Y-80447629D01*
X139995259Y-85947629D02*
X139995259Y-80447629D01*
X140045259Y-75147629D02*
X139745259Y-75747629D01*
X141995259Y-80447629D02*
X141995259Y-85947629D01*
X141995259Y-85947629D02*
X142495259Y-85947629D01*
X142495259Y-80447629D02*
X141995259Y-80447629D01*
X142495259Y-85947629D02*
X142495259Y-80447629D01*
X144495259Y-80447629D02*
X144495259Y-85947629D01*
X144495259Y-85947629D02*
X144995259Y-85947629D01*
X144995259Y-80447629D02*
X144495259Y-80447629D01*
X144995259Y-85947629D02*
X144995259Y-80447629D01*
X146995259Y-80447629D02*
X146995259Y-85947629D01*
X146995259Y-85947629D02*
X147495259Y-85947629D01*
X147495259Y-80447629D02*
X146995259Y-80447629D01*
X147495259Y-85947629D02*
X147495259Y-80447629D01*
X148495259Y-86557629D02*
X137185259Y-86557629D01*
X148495259Y-86557629D02*
X159805259Y-86557629D01*
X149495259Y-80447629D02*
X149495259Y-85947629D01*
X149495259Y-85947629D02*
X149995259Y-85947629D01*
X149995259Y-80447629D02*
X149495259Y-80447629D01*
X149995259Y-85947629D02*
X149995259Y-80447629D01*
X151995259Y-80447629D02*
X151995259Y-85947629D01*
X151995259Y-85947629D02*
X152495259Y-85947629D01*
X152495259Y-80447629D02*
X151995259Y-80447629D01*
X152495259Y-85947629D02*
X152495259Y-80447629D01*
X154495259Y-80447629D02*
X154495259Y-85947629D01*
X154495259Y-85947629D02*
X154995259Y-85947629D01*
X154995259Y-80447629D02*
X154495259Y-80447629D01*
X154995259Y-85947629D02*
X154995259Y-80447629D01*
X156995259Y-80447629D02*
X156995259Y-85947629D01*
X156995259Y-85947629D02*
X157495259Y-85947629D01*
X157495259Y-80447629D02*
X156995259Y-80447629D01*
X157495259Y-85947629D02*
X157495259Y-80447629D01*
X158385259Y-74837629D02*
X158385259Y-79337629D01*
X158385259Y-79337629D02*
X148495259Y-79337629D01*
X159805259Y-74837629D02*
X158385259Y-74837629D01*
X159805259Y-86557629D02*
X159805259Y-74837629D01*
%TD*%
M02*
