M48
; DRILL file {KiCad 8.0.8} date 2025-03-04T17:08:28-0500
; FORMAT={-:-/ absolute / metric / decimal}
; #@! TF.CreationDate,2025-03-04T17:08:28-05:00
; #@! TF.GenerationSoftware,Kicad,Pcbnew,8.0.8
; #@! TF.FileFunction,Plated,1,2,PTH
FMAT,2
METRIC
; #@! TA.AperFunction,Plated,PTH,ViaDrill
T1C0.300
; #@! TA.AperFunction,Plated,PTH,ComponentDrill
T2C0.762
; #@! TA.AperFunction,Plated,PTH,ComponentDrill
T3C0.800
; #@! TA.AperFunction,Plated,PTH,ComponentDrill
T4C0.900
; #@! TA.AperFunction,Plated,PTH,ComponentDrill
T5C0.950
; #@! TA.AperFunction,Plated,PTH,ComponentDrill
T6C1.000
; #@! TA.AperFunction,Plated,PTH,ComponentDrill
T7C1.100
; #@! TA.AperFunction,Plated,PTH,ComponentDrill
T8C1.500
%
G90
G05
T1
X123.0Y-46.5
X125.0Y-46.5
X125.0Y-50.0
X127.0Y-46.5
X127.0Y-50.0
X129.0Y-46.5
X129.0Y-50.0
X132.0Y-36.0
X138.5Y-85.0
X138.5Y-87.5
X141.5Y-79.5
X141.75Y-25.25
X143.5Y-83.5
X143.5Y-91.5
X145.0Y-76.0
X147.0Y-79.0
X147.3Y-87.55
X149.5Y-40.0
X150.0Y-89.0
X153.0Y-78.0
X154.5Y-83.5
X157.0Y-40.0
X163.55Y-31.7
X175.0Y-41.5
X176.0Y-41.0
X177.5Y-61.5
T2
X169.5Y-28.0
X169.5Y-30.0
X169.5Y-32.0
X169.5Y-34.0
X169.5Y-36.0
X169.5Y-38.0
X169.5Y-40.0
X169.5Y-42.0
X169.5Y-44.0
X169.5Y-46.0
X190.5Y-28.0
X190.5Y-30.0
X190.5Y-32.0
X190.5Y-34.0
X190.5Y-36.0
X190.5Y-38.0
X190.5Y-40.0
X190.5Y-42.0
X190.5Y-44.0
X190.5Y-46.0
T3
X107.26Y-28.912
X107.26Y-31.452
X119.5Y-25.0
X119.5Y-27.0
X119.5Y-29.0
X121.5Y-25.0
X121.5Y-27.0
X121.5Y-29.0
T4
X138.5Y-66.5
X140.5Y-66.5
X142.5Y-66.5
X180.235Y-66.0
X182.775Y-66.0
T5
X145.0Y-111.98
X147.5Y-111.98
X150.0Y-111.98
X152.5Y-111.98
X155.0Y-111.98
X157.5Y-111.98
X160.0Y-111.98
X162.5Y-111.98
X171.0Y-112.0
X173.5Y-112.0
X176.0Y-112.0
X178.5Y-112.0
X181.0Y-112.0
X183.5Y-112.0
X186.0Y-112.0
X188.5Y-112.0
T6
X108.14Y-75.0
X110.68Y-75.0
X113.22Y-75.0
X114.06Y-91.51
X115.76Y-75.0
X117.56Y-91.51
X118.3Y-75.0
X120.84Y-75.0
X121.68Y-91.51
X123.38Y-75.0
X125.18Y-91.51
X125.92Y-75.0
X128.46Y-75.0
X131.0Y-75.0
X131.885Y-45.76
X131.885Y-48.3
X131.885Y-50.84
X131.885Y-53.38
X131.885Y-55.92
X131.885Y-58.46
X131.885Y-61.0
X131.885Y-63.54
X148.88Y-50.0
X148.88Y-52.54
X148.88Y-102.0
X148.88Y-104.54
X151.42Y-50.0
X151.42Y-52.54
X151.42Y-102.0
X151.42Y-104.54
X153.96Y-50.0
X153.96Y-52.54
X153.96Y-102.0
X153.96Y-104.54
X156.5Y-50.0
X156.5Y-52.54
X156.5Y-102.0
X156.5Y-104.54
X159.04Y-50.0
X159.04Y-52.54
X159.04Y-102.0
X159.04Y-104.54
X161.58Y-50.0
X161.58Y-52.54
X161.58Y-102.0
X161.58Y-104.54
X190.69Y-89.015
X190.69Y-91.555
X190.69Y-94.095
X190.69Y-96.635
X190.69Y-99.175
X190.69Y-101.715
T7
X106.5Y-45.5
X106.5Y-50.0
X106.5Y-53.75
X106.5Y-58.25
X106.5Y-62.0
X106.5Y-66.5
X106.53Y-22.562
X106.53Y-37.802
X109.07Y-22.562
X109.07Y-25.102
X109.07Y-37.802
X111.61Y-22.562
X111.61Y-37.802
X112.829Y-34.751
X113.0Y-45.5
X113.0Y-50.0
X113.0Y-53.75
X113.0Y-58.25
X113.0Y-62.0
X113.0Y-66.5
X114.15Y-22.562
X114.15Y-37.802
X115.369Y-34.751
X116.69Y-22.562
X116.69Y-37.802
X117.909Y-34.751
X119.23Y-22.562
X119.23Y-37.802
X120.449Y-34.751
X121.77Y-22.562
X121.77Y-37.802
X122.989Y-34.751
X124.31Y-22.562
X124.31Y-37.802
X126.85Y-22.562
X126.85Y-37.802
X129.39Y-22.562
X129.39Y-37.802
X131.93Y-22.562
X131.93Y-37.802
X134.47Y-22.562
X134.47Y-37.802
X137.01Y-22.562
X137.01Y-37.802
X139.55Y-22.562
X139.55Y-37.802
X142.09Y-22.562
X142.09Y-37.802
X144.63Y-22.562
X144.63Y-37.802
X147.17Y-22.562
X147.17Y-37.802
X149.71Y-22.562
X149.71Y-37.802
X152.25Y-22.562
X152.25Y-25.102
X152.25Y-27.642
X152.25Y-30.182
X152.25Y-32.722
X152.25Y-35.262
X152.25Y-37.802
X154.79Y-22.562
X154.79Y-37.802
X157.33Y-22.562
X157.33Y-37.802
X159.87Y-22.562
X159.87Y-37.802
X162.41Y-22.562
X162.41Y-37.802
X164.95Y-22.562
X164.95Y-37.802
T8
X136.4Y-66.5
X144.6Y-66.5
M30
