%TF.GenerationSoftware,KiCad,Pcbnew,8.0.8*%
%TF.CreationDate,2025-03-04T17:08:20-05:00*%
%TF.ProjectId,board_AB,626f6172-645f-4414-922e-6b696361645f,rev?*%
%TF.SameCoordinates,Original*%
%TF.FileFunction,Paste,Top*%
%TF.FilePolarity,Positive*%
%FSLAX46Y46*%
G04 Gerber Fmt 4.6, Leading zero omitted, Abs format (unit mm)*
G04 Created by KiCad (PCBNEW 8.0.8) date 2025-03-04 17:08:20*
%MOMM*%
%LPD*%
G01*
G04 APERTURE LIST*
G04 Aperture macros list*
%AMRoundRect*
0 Rectangle with rounded corners*
0 $1 Rounding radius*
0 $2 $3 $4 $5 $6 $7 $8 $9 X,Y pos of 4 corners*
0 Add a 4 corners polygon primitive as box body*
4,1,4,$2,$3,$4,$5,$6,$7,$8,$9,$2,$3,0*
0 Add four circle primitives for the rounded corners*
1,1,$1+$1,$2,$3*
1,1,$1+$1,$4,$5*
1,1,$1+$1,$6,$7*
1,1,$1+$1,$8,$9*
0 Add four rect primitives between the rounded corners*
20,1,$1+$1,$2,$3,$4,$5,0*
20,1,$1+$1,$4,$5,$6,$7,0*
20,1,$1+$1,$6,$7,$8,$9,0*
20,1,$1+$1,$8,$9,$2,$3,0*%
G04 Aperture macros list end*
%ADD10RoundRect,0.250000X0.475000X-0.250000X0.475000X0.250000X-0.475000X0.250000X-0.475000X-0.250000X0*%
%ADD11RoundRect,0.250000X0.262500X0.450000X-0.262500X0.450000X-0.262500X-0.450000X0.262500X-0.450000X0*%
%ADD12RoundRect,0.250000X0.250000X0.475000X-0.250000X0.475000X-0.250000X-0.475000X0.250000X-0.475000X0*%
%ADD13RoundRect,0.167500X-0.167500X-0.167500X0.167500X-0.167500X0.167500X0.167500X-0.167500X0.167500X0*%
%ADD14RoundRect,0.050000X-0.375000X-0.050000X0.375000X-0.050000X0.375000X0.050000X-0.375000X0.050000X0*%
%ADD15RoundRect,0.050000X-0.050000X-0.375000X0.050000X-0.375000X0.050000X0.375000X-0.050000X0.375000X0*%
%ADD16RoundRect,0.150000X-0.587500X-0.150000X0.587500X-0.150000X0.587500X0.150000X-0.587500X0.150000X0*%
%ADD17RoundRect,0.250000X-0.262500X-0.450000X0.262500X-0.450000X0.262500X0.450000X-0.262500X0.450000X0*%
%ADD18RoundRect,0.250000X-0.475000X0.250000X-0.475000X-0.250000X0.475000X-0.250000X0.475000X0.250000X0*%
%ADD19RoundRect,0.250000X-0.250000X-0.475000X0.250000X-0.475000X0.250000X0.475000X-0.250000X0.475000X0*%
G04 APERTURE END LIST*
D10*
%TO.C,FB1*%
X143500000Y-86450000D03*
X143500000Y-84550000D03*
%TD*%
D11*
%TO.C,R6*%
X166412500Y-45000000D03*
X164587500Y-45000000D03*
%TD*%
D10*
%TO.C,C6*%
X143500000Y-90450000D03*
X143500000Y-88550000D03*
%TD*%
D11*
%TO.C,R5*%
X138412500Y-53000000D03*
X136587500Y-53000000D03*
%TD*%
D12*
%TO.C,C1*%
X147000000Y-77500000D03*
X145100000Y-77500000D03*
%TD*%
%TO.C,C5*%
X152950000Y-79500000D03*
X151050000Y-79500000D03*
%TD*%
D11*
%TO.C,R7*%
X166412500Y-43000000D03*
X164587500Y-43000000D03*
%TD*%
D13*
%TO.C,U6*%
X146890000Y-87140000D03*
X146890000Y-87960000D03*
X147710000Y-87140000D03*
X147710000Y-87960000D03*
D14*
X145850000Y-86750000D03*
X145850000Y-87150000D03*
X145850000Y-87550000D03*
X145850000Y-87950000D03*
X145850000Y-88350000D03*
D15*
X146500000Y-89000000D03*
X146900000Y-89000000D03*
X147300000Y-89000000D03*
X147700000Y-89000000D03*
X148100000Y-89000000D03*
D14*
X148750000Y-88350000D03*
X148750000Y-87950000D03*
X148750000Y-87550000D03*
X148750000Y-87150000D03*
X148750000Y-86750000D03*
D15*
X148100000Y-86100000D03*
X147700000Y-86100000D03*
X147300000Y-86100000D03*
X146900000Y-86100000D03*
X146500000Y-86100000D03*
%TD*%
D10*
%TO.C,C2*%
X143000000Y-81450000D03*
X143000000Y-79550000D03*
%TD*%
D11*
%TO.C,R8*%
X166500000Y-41000000D03*
X164675000Y-41000000D03*
%TD*%
D16*
%TO.C,U5*%
X145125000Y-79550000D03*
X145125000Y-81450000D03*
X147000000Y-80500000D03*
%TD*%
D17*
%TO.C,R9*%
X179087500Y-61500000D03*
X180912500Y-61500000D03*
%TD*%
D18*
%TO.C,C7*%
X146500000Y-92050000D03*
X146500000Y-93950000D03*
%TD*%
D11*
%TO.C,R2*%
X152912500Y-81500000D03*
X151087500Y-81500000D03*
%TD*%
D19*
%TO.C,C4*%
X139600000Y-85000000D03*
X141500000Y-85000000D03*
%TD*%
%TO.C,C3*%
X139600000Y-87500000D03*
X141500000Y-87500000D03*
%TD*%
D11*
%TO.C,R1*%
X152912500Y-83500000D03*
X151087500Y-83500000D03*
%TD*%
%TO.C,R10*%
X160500000Y-41000000D03*
X158675000Y-41000000D03*
%TD*%
D18*
%TO.C,C8*%
X149000000Y-92050000D03*
X149000000Y-93950000D03*
%TD*%
D17*
%TO.C,R4*%
X136587500Y-51000000D03*
X138412500Y-51000000D03*
%TD*%
%TO.C,R3*%
X151587500Y-89000000D03*
X153412500Y-89000000D03*
%TD*%
M02*
