%TF.GenerationSoftware,KiCad,Pcbnew,8.0.8*%
%TF.CreationDate,2025-03-04T17:09:11-05:00*%
%TF.ProjectId,board_C,626f6172-645f-4432-9e6b-696361645f70,rev?*%
%TF.SameCoordinates,Original*%
%TF.FileFunction,Copper,L2,Bot*%
%TF.FilePolarity,Positive*%
%FSLAX46Y46*%
G04 Gerber Fmt 4.6, Leading zero omitted, Abs format (unit mm)*
G04 Created by KiCad (PCBNEW 8.0.8) date 2025-03-04 17:09:11*
%MOMM*%
%LPD*%
G01*
G04 APERTURE LIST*
G04 Aperture macros list*
%AMRoundRect*
0 Rectangle with rounded corners*
0 $1 Rounding radius*
0 $2 $3 $4 $5 $6 $7 $8 $9 X,Y pos of 4 corners*
0 Add a 4 corners polygon primitive as box body*
4,1,4,$2,$3,$4,$5,$6,$7,$8,$9,$2,$3,0*
0 Add four circle primitives for the rounded corners*
1,1,$1+$1,$2,$3*
1,1,$1+$1,$4,$5*
1,1,$1+$1,$6,$7*
1,1,$1+$1,$8,$9*
0 Add four rect primitives between the rounded corners*
20,1,$1+$1,$2,$3,$4,$5,0*
20,1,$1+$1,$4,$5,$6,$7,0*
20,1,$1+$1,$6,$7,$8,$9,0*
20,1,$1+$1,$8,$9,$2,$3,0*%
G04 Aperture macros list end*
%TA.AperFunction,ComponentPad*%
%ADD10RoundRect,0.250000X-0.725000X0.600000X-0.725000X-0.600000X0.725000X-0.600000X0.725000X0.600000X0*%
%TD*%
%TA.AperFunction,ComponentPad*%
%ADD11O,1.950000X1.700000*%
%TD*%
%TA.AperFunction,ComponentPad*%
%ADD12C,1.676400*%
%TD*%
%TA.AperFunction,ComponentPad*%
%ADD13RoundRect,0.250000X-0.600000X-0.725000X0.600000X-0.725000X0.600000X0.725000X-0.600000X0.725000X0*%
%TD*%
%TA.AperFunction,ComponentPad*%
%ADD14O,1.700000X1.950000*%
%TD*%
%TA.AperFunction,Conductor*%
%ADD15C,0.500000*%
%TD*%
%TA.AperFunction,Conductor*%
%ADD16C,1.000000*%
%TD*%
G04 APERTURE END LIST*
D10*
%TO.P,J7,1,Pin_1*%
%TO.N,unconnected-(J7-Pin_1-Pad1)*%
X121995259Y-42247629D03*
D11*
%TO.P,J7,2,Pin_2*%
%TO.N,/RightSpeakerAndMic/3V3_SPK*%
X121995259Y-44747629D03*
%TO.P,J7,3,Pin_3*%
%TO.N,/RightSpeakerAndMic/LRCLK*%
X121995259Y-47247629D03*
%TO.P,J7,4,Pin_4*%
%TO.N,/RightSpeakerAndMic/DOUT*%
X121995259Y-49747629D03*
%TO.P,J7,5,Pin_5*%
%TO.N,/RightSpeakerAndMic/BCLK*%
X121995259Y-52247629D03*
%TO.P,J7,6,Pin_6*%
%TO.N,/RightSpeakerAndMic/GND_SPK*%
X121995259Y-54747629D03*
%TO.P,J7,7,Pin_7*%
%TO.N,/RightSpeakerAndMic/3V3_SPK*%
X121995259Y-57247629D03*
%TO.P,J7,8,Pin_8*%
%TO.N,unconnected-(J7-Pin_8-Pad8)*%
X121995259Y-59747629D03*
%TD*%
D12*
%TO.P,U8,1,SEL*%
%TO.N,/RightSpeakerAndMic/GND_SPK*%
X142155328Y-23415908D03*
%TO.P,U8,2,LRCLK*%
%TO.N,/RightSpeakerAndMic/LRCLK*%
X144695328Y-23415908D03*
%TO.P,U8,3,DOUT*%
%TO.N,/RightSpeakerAndMic/DOUT*%
X147235328Y-23415908D03*
%TO.P,U8,4,BCLK*%
%TO.N,/RightSpeakerAndMic/BCLK*%
X149775328Y-23415908D03*
%TO.P,U8,5,GND*%
%TO.N,/RightSpeakerAndMic/GND_SPK*%
X152315328Y-23415908D03*
%TO.P,U8,6,3V*%
%TO.N,/RightSpeakerAndMic/3V3_SPK*%
X154855328Y-23415908D03*
%TD*%
D13*
%TO.P,J5,1,Pin_1*%
%TO.N,/RightSpeakerAndMic/3V3_SPK*%
X139745259Y-77247629D03*
D14*
%TO.P,J5,2,Pin_2*%
%TO.N,/RightSpeakerAndMic/GND_SPK*%
X142245259Y-77247629D03*
%TO.P,J5,3,Pin_3*%
%TO.N,/RightSpeakerAndMic/Spk-*%
X144745259Y-77247629D03*
%TO.P,J5,4,Pin_4*%
%TO.N,/RightSpeakerAndMic/Spk+*%
X147245259Y-77247629D03*
%TO.P,J5,5,Pin_5*%
%TO.N,/RightSpeakerAndMic/LRCLK*%
X149745259Y-77247629D03*
%TO.P,J5,6,Pin_6*%
%TO.N,/RightSpeakerAndMic/DOUT*%
X152245259Y-77247629D03*
%TO.P,J5,7,Pin_7*%
%TO.N,/RightSpeakerAndMic/BCLK*%
X154745259Y-77247629D03*
%TO.P,J5,8,Pin_8*%
%TO.N,/RightSpeakerAndMic/GND_SPK*%
X157245259Y-77247629D03*
%TD*%
D12*
%TO.P,LS1,1,1*%
%TO.N,/RightSpeakerAndMic/Spk-*%
X132495259Y-73597629D03*
%TO.P,LS1,2,2*%
%TO.N,/RightSpeakerAndMic/Spk+*%
X164495259Y-73597629D03*
%TD*%
D15*
%TO.N,/RightSpeakerAndMic/Spk+*%
X148670259Y-78672629D02*
X147245259Y-77247629D01*
X164495259Y-73597629D02*
X159420259Y-78672629D01*
X159420259Y-78672629D02*
X148670259Y-78672629D01*
D16*
%TO.N,/RightSpeakerAndMic/3V3_SPK*%
X122208391Y-65448953D02*
X122744074Y-66383227D01*
X130646123Y-26888533D02*
X129792238Y-27544757D01*
X124547331Y-32932830D02*
X123914311Y-33804108D01*
X137202604Y-23207052D02*
X136212310Y-23630324D01*
X120807162Y-62539268D02*
X121239309Y-63525732D01*
X129792238Y-27544757D02*
X128962405Y-28231256D01*
X125905128Y-31261212D02*
X125211203Y-32084858D01*
X125211203Y-32084858D02*
X124547331Y-32932830D01*
X126628140Y-30463043D02*
X125905128Y-31261212D01*
X121239309Y-38469526D02*
X120807162Y-39455990D01*
X121245259Y-44747629D02*
X121995259Y-44747629D01*
X120410704Y-40457327D02*
X120320259Y-40712130D01*
X134280458Y-24582112D02*
X133341402Y-25109393D01*
X121239309Y-63525732D02*
X121706596Y-64496062D01*
X129792238Y-74450501D02*
X130646123Y-75106725D01*
X122744074Y-66383227D02*
X123312960Y-67297690D01*
X133341402Y-76885865D02*
X133985682Y-77247629D01*
X122744074Y-35612031D02*
X122208391Y-36546305D01*
X133985682Y-77247629D02*
X139745259Y-77247629D01*
X121706596Y-37499196D02*
X121239309Y-38469526D01*
X135237853Y-24088869D02*
X134280458Y-24582112D01*
X138207441Y-22819606D02*
X137202604Y-23207052D01*
X131523088Y-75731928D02*
X132421889Y-76325221D01*
X120320259Y-61283128D02*
X120410704Y-61537931D01*
X123312960Y-34697568D02*
X122744074Y-35612031D01*
X125211203Y-69910400D02*
X125905128Y-70734046D01*
X131523088Y-26263330D02*
X130646123Y-26888533D01*
X124547331Y-69062428D02*
X125211203Y-69910400D01*
X120320259Y-46422629D02*
X121995259Y-44747629D01*
X128157780Y-28947071D02*
X127379349Y-29691327D01*
X139225571Y-22468468D02*
X138207441Y-22819606D01*
X120807162Y-39455990D02*
X120410704Y-40457327D01*
X126628140Y-71532215D02*
X127379349Y-72303931D01*
X123312960Y-67297690D02*
X123914311Y-68191150D01*
X123914311Y-68191150D02*
X124547331Y-69062428D01*
X120320259Y-40712130D02*
X120320259Y-43822629D01*
X122208391Y-36546305D02*
X121706596Y-37499196D01*
X154855328Y-23415908D02*
X153316349Y-21876929D01*
X133341402Y-25109393D02*
X132421889Y-25670037D01*
X120320259Y-43822629D02*
X121245259Y-44747629D01*
X121995259Y-57247629D02*
X120320259Y-58922629D01*
X123914311Y-33804108D02*
X123312960Y-34697568D01*
X120410704Y-61537931D02*
X120807162Y-62539268D01*
X128157780Y-73048187D02*
X128962405Y-73764002D01*
X132421889Y-25670037D02*
X131523088Y-26263330D01*
X120320259Y-55572629D02*
X120320259Y-46422629D01*
X136212310Y-23630324D02*
X135237853Y-24088869D01*
X153316349Y-21876929D02*
X141296299Y-21876929D01*
X121706596Y-64496062D02*
X122208391Y-65448953D01*
X127379349Y-72303931D02*
X128157780Y-73048187D01*
X125905128Y-70734046D02*
X126628140Y-71532215D01*
X130646123Y-75106725D02*
X131523088Y-75731928D01*
X120320259Y-58922629D02*
X120320259Y-61283128D01*
X128962405Y-73764002D02*
X129792238Y-74450501D01*
X140255651Y-22154102D02*
X139225571Y-22468468D01*
X141296299Y-21876929D02*
X140255651Y-22154102D01*
X132421889Y-76325221D02*
X133341402Y-76885865D01*
X121995259Y-57247629D02*
X120320259Y-55572629D01*
X127379349Y-29691327D02*
X126628140Y-30463043D01*
X128962405Y-28231256D02*
X128157780Y-28947071D01*
%TD*%
%TA.AperFunction,Conductor*%
%TO.N,/RightSpeakerAndMic/GND_SPK*%
G36*
X154217744Y-21043791D02*
G01*
X154510711Y-21097270D01*
X154515078Y-21098148D01*
X155586261Y-21333934D01*
X155590599Y-21334971D01*
X156652592Y-21609280D01*
X156656877Y-21610470D01*
X157708285Y-21922944D01*
X157712484Y-21924275D01*
X158751916Y-22274500D01*
X158756101Y-22275995D01*
X159487232Y-22552116D01*
X159782191Y-22663511D01*
X159786348Y-22665167D01*
X160797806Y-23089484D01*
X160801849Y-23091268D01*
X161797338Y-23551831D01*
X161801280Y-23553742D01*
X162737007Y-24028392D01*
X162779477Y-24049935D01*
X162783433Y-24052032D01*
X163743077Y-24583216D01*
X163746902Y-24585425D01*
X164686732Y-25150902D01*
X164690519Y-25153275D01*
X165609313Y-25752307D01*
X165613019Y-25754820D01*
X166509568Y-26386620D01*
X166513181Y-26389265D01*
X167386345Y-27053028D01*
X167389859Y-27055801D01*
X167429707Y-27088428D01*
X168169466Y-27694136D01*
X168238483Y-27750646D01*
X168241896Y-27753545D01*
X169064881Y-28478577D01*
X169068187Y-28481597D01*
X169864470Y-29235876D01*
X169867664Y-29239013D01*
X170636211Y-30021562D01*
X170639262Y-30024783D01*
X171283483Y-30729955D01*
X171379031Y-30834543D01*
X171381991Y-30837902D01*
X172028552Y-31599093D01*
X172092050Y-31673848D01*
X172094884Y-31677309D01*
X172416664Y-32085106D01*
X172774326Y-32538377D01*
X172777035Y-32541942D01*
X173424912Y-33426929D01*
X173427491Y-33430589D01*
X174042996Y-34338392D01*
X174045442Y-34342143D01*
X174627785Y-35271596D01*
X174630093Y-35275432D01*
X175178487Y-36225277D01*
X175180656Y-36229194D01*
X175694424Y-37198264D01*
X175696449Y-37202257D01*
X176174881Y-38189209D01*
X176176761Y-38193273D01*
X176177982Y-38196042D01*
X176483727Y-38889486D01*
X176619251Y-39196859D01*
X176620983Y-39200988D01*
X177026951Y-40219893D01*
X177028533Y-40224082D01*
X177397450Y-41256973D01*
X177398880Y-41261216D01*
X177730275Y-42306778D01*
X177731550Y-42311069D01*
X178024975Y-43367890D01*
X178026095Y-43372226D01*
X178281179Y-44438968D01*
X178282141Y-44443340D01*
X178498543Y-45518581D01*
X178499347Y-45522986D01*
X178676788Y-46605327D01*
X178677433Y-46609758D01*
X178718301Y-46931389D01*
X178798666Y-47563872D01*
X178815688Y-47697832D01*
X178816172Y-47702283D01*
X178915052Y-48794625D01*
X178915375Y-48799091D01*
X178974754Y-49894276D01*
X178974916Y-49898750D01*
X178994718Y-50995389D01*
X178994718Y-50999867D01*
X178974916Y-52096505D01*
X178974754Y-52100979D01*
X178915375Y-53196164D01*
X178915052Y-53200630D01*
X178816172Y-54292972D01*
X178815688Y-54297423D01*
X178677433Y-55385497D01*
X178676788Y-55389928D01*
X178499347Y-56472269D01*
X178498543Y-56476674D01*
X178282141Y-57551915D01*
X178281179Y-57556287D01*
X178026095Y-58623029D01*
X178024975Y-58627365D01*
X177731550Y-59684186D01*
X177730275Y-59688477D01*
X177398880Y-60734039D01*
X177397450Y-60738282D01*
X177028533Y-61771173D01*
X177026951Y-61775362D01*
X176620983Y-62794267D01*
X176619251Y-62798396D01*
X176176761Y-63801982D01*
X176174881Y-63806046D01*
X175696449Y-64792998D01*
X175694424Y-64796991D01*
X175180656Y-65766061D01*
X175178487Y-65769978D01*
X174630093Y-66719823D01*
X174627785Y-66723659D01*
X174045442Y-67653112D01*
X174042996Y-67656863D01*
X173427491Y-68564666D01*
X173424912Y-68568326D01*
X172777035Y-69453313D01*
X172774326Y-69456878D01*
X172094887Y-70317943D01*
X172092050Y-70321407D01*
X171381991Y-71157353D01*
X171379031Y-71160712D01*
X170639276Y-71970457D01*
X170636197Y-71973708D01*
X169867664Y-72756242D01*
X169864470Y-72759379D01*
X169068187Y-73513658D01*
X169064881Y-73516678D01*
X168241896Y-74241710D01*
X168238483Y-74244609D01*
X167389859Y-74939454D01*
X167386345Y-74942227D01*
X166513181Y-75605990D01*
X166509568Y-75608635D01*
X165613019Y-76240435D01*
X165609313Y-76242948D01*
X164690526Y-76841976D01*
X164686732Y-76844353D01*
X163746928Y-77409815D01*
X163743050Y-77412054D01*
X162783433Y-77943223D01*
X162779477Y-77945320D01*
X161801324Y-78441492D01*
X161797295Y-78443445D01*
X160801876Y-78903975D01*
X160797779Y-78905782D01*
X160433210Y-79058722D01*
X160363775Y-79066504D01*
X160301155Y-79035511D01*
X160265232Y-78975584D01*
X160267411Y-78905748D01*
X160297558Y-78856697D01*
X164194650Y-74959604D01*
X164255971Y-74926121D01*
X164293135Y-74923759D01*
X164441491Y-74936738D01*
X164495258Y-74941443D01*
X164495259Y-74941443D01*
X164495260Y-74941443D01*
X164534150Y-74938040D01*
X164728610Y-74921027D01*
X164954870Y-74860401D01*
X165167166Y-74761406D01*
X165359046Y-74627050D01*
X165524680Y-74461416D01*
X165659036Y-74269536D01*
X165758031Y-74057240D01*
X165818657Y-73830980D01*
X165839073Y-73597629D01*
X165818657Y-73364278D01*
X165758031Y-73138018D01*
X165659036Y-72925722D01*
X165524680Y-72733842D01*
X165359046Y-72568208D01*
X165167166Y-72433852D01*
X164954870Y-72334857D01*
X164954866Y-72334856D01*
X164954862Y-72334854D01*
X164728615Y-72274232D01*
X164728605Y-72274230D01*
X164495260Y-72253815D01*
X164495258Y-72253815D01*
X164261912Y-72274230D01*
X164261902Y-72274232D01*
X164035655Y-72334854D01*
X164035648Y-72334856D01*
X164035648Y-72334857D01*
X163823352Y-72433852D01*
X163631472Y-72568208D01*
X163631470Y-72568209D01*
X163631467Y-72568212D01*
X163465842Y-72733837D01*
X163465839Y-72733840D01*
X163465838Y-72733842D01*
X163415796Y-72805310D01*
X163331482Y-72925722D01*
X163232488Y-73138016D01*
X163232484Y-73138025D01*
X163171862Y-73364272D01*
X163171860Y-73364282D01*
X163151445Y-73597628D01*
X163151445Y-73597630D01*
X163169128Y-73799749D01*
X163155361Y-73868249D01*
X163133281Y-73898237D01*
X159145710Y-77885810D01*
X159084387Y-77919295D01*
X159058029Y-77922129D01*
X156157386Y-77922129D01*
X156090347Y-77902444D01*
X156044592Y-77849640D01*
X156034648Y-77780482D01*
X156039455Y-77759811D01*
X156062505Y-77688872D01*
X156095759Y-77478916D01*
X156095759Y-77016342D01*
X156062505Y-76806386D01*
X155996816Y-76604217D01*
X155900310Y-76414813D01*
X155900308Y-76414810D01*
X155900307Y-76414808D01*
X155775368Y-76242842D01*
X155625045Y-76092519D01*
X155453079Y-75967580D01*
X155263673Y-75871073D01*
X155263672Y-75871072D01*
X155263671Y-75871072D01*
X155061502Y-75805383D01*
X155061500Y-75805382D01*
X155061499Y-75805382D01*
X154900216Y-75779837D01*
X154851546Y-75772129D01*
X154638972Y-75772129D01*
X154590301Y-75779837D01*
X154429019Y-75805382D01*
X154226844Y-75871073D01*
X154037438Y-75967580D01*
X153865472Y-76092519D01*
X153715153Y-76242838D01*
X153715149Y-76242843D01*
X153595577Y-76407422D01*
X153540248Y-76450088D01*
X153470634Y-76456067D01*
X153408839Y-76423462D01*
X153394941Y-76407422D01*
X153275368Y-76242843D01*
X153275364Y-76242838D01*
X153125045Y-76092519D01*
X152953079Y-75967580D01*
X152763673Y-75871073D01*
X152763672Y-75871072D01*
X152763671Y-75871072D01*
X152561502Y-75805383D01*
X152561500Y-75805382D01*
X152561499Y-75805382D01*
X152400216Y-75779837D01*
X152351546Y-75772129D01*
X152138972Y-75772129D01*
X152090301Y-75779837D01*
X151929019Y-75805382D01*
X151726844Y-75871073D01*
X151537438Y-75967580D01*
X151365472Y-76092519D01*
X151215153Y-76242838D01*
X151215149Y-76242843D01*
X151095577Y-76407422D01*
X151040248Y-76450088D01*
X150970634Y-76456067D01*
X150908839Y-76423462D01*
X150894941Y-76407422D01*
X150775368Y-76242843D01*
X150775364Y-76242838D01*
X150625045Y-76092519D01*
X150453079Y-75967580D01*
X150263673Y-75871073D01*
X150263672Y-75871072D01*
X150263671Y-75871072D01*
X150061502Y-75805383D01*
X150061500Y-75805382D01*
X150061499Y-75805382D01*
X149900216Y-75779837D01*
X149851546Y-75772129D01*
X149638972Y-75772129D01*
X149590301Y-75779837D01*
X149429019Y-75805382D01*
X149226844Y-75871073D01*
X149037438Y-75967580D01*
X148865472Y-76092519D01*
X148715153Y-76242838D01*
X148715149Y-76242843D01*
X148595577Y-76407422D01*
X148540248Y-76450088D01*
X148470634Y-76456067D01*
X148408839Y-76423462D01*
X148394941Y-76407422D01*
X148275368Y-76242843D01*
X148275364Y-76242838D01*
X148125045Y-76092519D01*
X147953079Y-75967580D01*
X147763673Y-75871073D01*
X147763672Y-75871072D01*
X147763671Y-75871072D01*
X147561502Y-75805383D01*
X147561500Y-75805382D01*
X147561499Y-75805382D01*
X147400216Y-75779837D01*
X147351546Y-75772129D01*
X147138972Y-75772129D01*
X147090301Y-75779837D01*
X146929019Y-75805382D01*
X146726844Y-75871073D01*
X146537438Y-75967580D01*
X146365472Y-76092519D01*
X146215153Y-76242838D01*
X146215149Y-76242843D01*
X146095577Y-76407422D01*
X146040248Y-76450088D01*
X145970634Y-76456067D01*
X145908839Y-76423462D01*
X145894941Y-76407422D01*
X145775368Y-76242843D01*
X145775364Y-76242838D01*
X145625045Y-76092519D01*
X145453079Y-75967580D01*
X145263673Y-75871073D01*
X145263672Y-75871072D01*
X145263671Y-75871072D01*
X145061502Y-75805383D01*
X145061500Y-75805382D01*
X145061499Y-75805382D01*
X144900216Y-75779837D01*
X144851546Y-75772129D01*
X144638972Y-75772129D01*
X144590301Y-75779837D01*
X144429019Y-75805382D01*
X144226844Y-75871073D01*
X144037438Y-75967580D01*
X143865472Y-76092519D01*
X143715149Y-76242842D01*
X143590210Y-76414808D01*
X143493703Y-76604214D01*
X143428012Y-76806389D01*
X143416842Y-76876916D01*
X143394759Y-77016342D01*
X143394759Y-77478916D01*
X143428013Y-77688872D01*
X143492002Y-77885810D01*
X143493703Y-77891043D01*
X143590210Y-78080449D01*
X143715149Y-78252415D01*
X143865472Y-78402738D01*
X144037438Y-78527677D01*
X144037440Y-78527678D01*
X144037443Y-78527680D01*
X144226847Y-78624186D01*
X144429016Y-78689875D01*
X144638972Y-78723129D01*
X144638973Y-78723129D01*
X144851545Y-78723129D01*
X144851546Y-78723129D01*
X145061502Y-78689875D01*
X145263671Y-78624186D01*
X145453075Y-78527680D01*
X145475048Y-78511715D01*
X145625045Y-78402738D01*
X145625047Y-78402735D01*
X145625051Y-78402733D01*
X145775363Y-78252421D01*
X145894942Y-78087833D01*
X145950270Y-78045169D01*
X146019883Y-78039190D01*
X146081679Y-78071795D01*
X146095572Y-78087828D01*
X146212037Y-78248129D01*
X146215155Y-78252421D01*
X146365472Y-78402738D01*
X146537438Y-78527677D01*
X146537440Y-78527678D01*
X146537443Y-78527680D01*
X146726847Y-78624186D01*
X146929016Y-78689875D01*
X147138972Y-78723129D01*
X147138973Y-78723129D01*
X147351545Y-78723129D01*
X147351546Y-78723129D01*
X147554897Y-78690921D01*
X147624190Y-78699876D01*
X147661976Y-78725713D01*
X148087307Y-79151044D01*
X148087308Y-79151045D01*
X148191843Y-79255580D01*
X148191844Y-79255581D01*
X148314757Y-79337709D01*
X148314770Y-79337716D01*
X148451341Y-79394285D01*
X148451346Y-79394287D01*
X148451350Y-79394287D01*
X148451351Y-79394288D01*
X148596338Y-79423129D01*
X158860912Y-79423129D01*
X158927951Y-79442814D01*
X158973706Y-79495618D01*
X158983650Y-79564776D01*
X158954625Y-79628332D01*
X158904722Y-79663132D01*
X158756117Y-79719254D01*
X158751900Y-79720760D01*
X157712518Y-80070969D01*
X157708250Y-80072322D01*
X156656891Y-80384781D01*
X156652577Y-80385979D01*
X155590607Y-80660282D01*
X155586252Y-80661323D01*
X154515089Y-80897104D01*
X154510700Y-80897987D01*
X153431746Y-81094939D01*
X153427327Y-81095664D01*
X152341919Y-81253540D01*
X152337478Y-81254104D01*
X151247118Y-81372688D01*
X151242659Y-81373092D01*
X150148690Y-81452237D01*
X150144219Y-81452479D01*
X149048144Y-81492076D01*
X149043667Y-81492157D01*
X147946851Y-81492157D01*
X147942374Y-81492076D01*
X146846298Y-81452479D01*
X146841827Y-81452237D01*
X145747858Y-81373092D01*
X145743399Y-81372688D01*
X144653039Y-81254104D01*
X144648598Y-81253540D01*
X143563190Y-81095664D01*
X143558771Y-81094939D01*
X142479817Y-80897987D01*
X142475428Y-80897104D01*
X141404265Y-80661323D01*
X141399910Y-80660282D01*
X140337940Y-80385979D01*
X140333626Y-80384781D01*
X139282267Y-80072322D01*
X139277999Y-80070969D01*
X138238617Y-79720760D01*
X138234400Y-79719254D01*
X137208326Y-79331744D01*
X137204167Y-79330087D01*
X136192738Y-78905782D01*
X136188641Y-78903975D01*
X135282325Y-78484668D01*
X135229747Y-78438654D01*
X135210393Y-78371518D01*
X135230407Y-78304577D01*
X135283436Y-78259082D01*
X135334391Y-78248129D01*
X138364201Y-78248129D01*
X138431240Y-78267814D01*
X138469738Y-78307030D01*
X138552547Y-78441285D01*
X138676603Y-78565341D01*
X138825925Y-78657443D01*
X138992462Y-78712628D01*
X139095250Y-78723129D01*
X140395267Y-78723128D01*
X140498056Y-78712628D01*
X140664593Y-78657443D01*
X140813915Y-78565341D01*
X140937971Y-78441285D01*
X141030073Y-78291963D01*
X141085258Y-78125426D01*
X141095759Y-78022638D01*
X141095758Y-76472621D01*
X141085258Y-76369832D01*
X141030073Y-76203295D01*
X140937971Y-76053973D01*
X140813915Y-75929917D01*
X140664593Y-75837815D01*
X140498056Y-75782630D01*
X140498054Y-75782629D01*
X140395269Y-75772129D01*
X139095257Y-75772129D01*
X139095240Y-75772130D01*
X138992462Y-75782629D01*
X138992459Y-75782630D01*
X138825927Y-75837814D01*
X138825922Y-75837816D01*
X138676601Y-75929918D01*
X138552548Y-76053971D01*
X138469740Y-76188226D01*
X138417792Y-76234950D01*
X138364201Y-76247129D01*
X134279789Y-76247129D01*
X134219080Y-76231250D01*
X133848866Y-76023374D01*
X133845026Y-76021127D01*
X132959970Y-75481493D01*
X132956211Y-75479107D01*
X132479999Y-75164762D01*
X132434894Y-75111402D01*
X132425797Y-75042127D01*
X132455598Y-74978931D01*
X132514834Y-74941879D01*
X132537500Y-74937747D01*
X132728610Y-74921027D01*
X132954870Y-74860401D01*
X133167166Y-74761406D01*
X133359046Y-74627050D01*
X133524680Y-74461416D01*
X133659036Y-74269536D01*
X133758031Y-74057240D01*
X133818657Y-73830980D01*
X133839073Y-73597629D01*
X133818657Y-73364278D01*
X133758031Y-73138018D01*
X133659036Y-72925722D01*
X133524680Y-72733842D01*
X133359046Y-72568208D01*
X133167166Y-72433852D01*
X132954870Y-72334857D01*
X132954866Y-72334856D01*
X132954862Y-72334854D01*
X132728615Y-72274232D01*
X132728605Y-72274230D01*
X132495260Y-72253815D01*
X132495258Y-72253815D01*
X132261912Y-72274230D01*
X132261902Y-72274232D01*
X132035655Y-72334854D01*
X132035648Y-72334856D01*
X132035648Y-72334857D01*
X131823352Y-72433852D01*
X131631472Y-72568208D01*
X131631470Y-72568209D01*
X131631467Y-72568212D01*
X131465842Y-72733837D01*
X131465839Y-72733840D01*
X131465838Y-72733842D01*
X131415796Y-72805310D01*
X131331482Y-72925722D01*
X131232488Y-73138016D01*
X131232484Y-73138025D01*
X131171862Y-73364272D01*
X131171860Y-73364282D01*
X131151445Y-73597628D01*
X131151445Y-73597629D01*
X131171860Y-73830975D01*
X131171862Y-73830985D01*
X131218232Y-74004043D01*
X131216569Y-74073893D01*
X131177406Y-74131755D01*
X131113177Y-74159259D01*
X131044275Y-74147672D01*
X131022897Y-74134455D01*
X130417922Y-73669521D01*
X130414441Y-73666746D01*
X129615696Y-73005967D01*
X129612318Y-73003068D01*
X128837885Y-72314112D01*
X128834612Y-72311094D01*
X128535295Y-72024918D01*
X128085336Y-71594714D01*
X128082188Y-71591594D01*
X127359137Y-70848803D01*
X127356090Y-70845558D01*
X126879737Y-70319689D01*
X126660178Y-70077306D01*
X126657257Y-70073963D01*
X125989332Y-69281178D01*
X125986537Y-69277736D01*
X125431144Y-68568326D01*
X125347570Y-68461576D01*
X125344895Y-68458029D01*
X125170223Y-68217614D01*
X124735609Y-67619418D01*
X124733057Y-67615770D01*
X124154239Y-66755789D01*
X124151820Y-66752052D01*
X123604263Y-65871874D01*
X123601980Y-65868052D01*
X123086393Y-64968826D01*
X123084248Y-64964925D01*
X122805102Y-64434838D01*
X122601245Y-64047723D01*
X122599260Y-64043783D01*
X122149464Y-63109771D01*
X122147636Y-63105793D01*
X121731692Y-62156316D01*
X121729979Y-62152207D01*
X121579952Y-61773283D01*
X121358897Y-61214965D01*
X121352521Y-61145389D01*
X121384773Y-61083408D01*
X121445415Y-61048704D01*
X121512507Y-61051387D01*
X121554016Y-61064875D01*
X121763972Y-61098129D01*
X121763973Y-61098129D01*
X122226545Y-61098129D01*
X122226546Y-61098129D01*
X122436502Y-61064875D01*
X122638671Y-60999186D01*
X122828075Y-60902680D01*
X122850048Y-60886715D01*
X123000045Y-60777738D01*
X123000047Y-60777735D01*
X123000051Y-60777733D01*
X123150363Y-60627421D01*
X123150365Y-60627417D01*
X123150368Y-60627415D01*
X123275307Y-60455449D01*
X123275306Y-60455449D01*
X123275310Y-60455445D01*
X123371816Y-60266041D01*
X123437505Y-60063872D01*
X123470759Y-59853916D01*
X123470759Y-59641342D01*
X123437505Y-59431386D01*
X123371816Y-59229217D01*
X123275310Y-59039813D01*
X123275308Y-59039810D01*
X123275307Y-59039808D01*
X123150368Y-58867842D01*
X123000051Y-58717525D01*
X122835463Y-58597945D01*
X122792799Y-58542618D01*
X122786820Y-58473005D01*
X122819425Y-58411209D01*
X122835458Y-58397315D01*
X123000051Y-58277733D01*
X123150363Y-58127421D01*
X123150365Y-58127417D01*
X123150368Y-58127415D01*
X123275307Y-57955449D01*
X123275306Y-57955449D01*
X123275310Y-57955445D01*
X123371816Y-57766041D01*
X123437505Y-57563872D01*
X123470759Y-57353916D01*
X123470759Y-57141342D01*
X123437505Y-56931386D01*
X123371816Y-56729217D01*
X123275310Y-56539813D01*
X123275308Y-56539810D01*
X123275307Y-56539808D01*
X123150368Y-56367842D01*
X123000045Y-56217519D01*
X122828079Y-56092580D01*
X122638673Y-55996073D01*
X122638672Y-55996072D01*
X122638671Y-55996072D01*
X122436502Y-55930383D01*
X122436500Y-55930382D01*
X122436499Y-55930382D01*
X122275216Y-55904837D01*
X122226546Y-55897129D01*
X122226545Y-55897129D01*
X122111042Y-55897129D01*
X122044003Y-55877444D01*
X122023361Y-55860810D01*
X121357078Y-55194527D01*
X121323593Y-55133204D01*
X121320759Y-55106846D01*
X121320759Y-53659756D01*
X121340444Y-53592717D01*
X121393248Y-53546962D01*
X121462406Y-53537018D01*
X121483072Y-53541823D01*
X121554016Y-53564875D01*
X121763972Y-53598129D01*
X121763973Y-53598129D01*
X122226545Y-53598129D01*
X122226546Y-53598129D01*
X122436502Y-53564875D01*
X122638671Y-53499186D01*
X122828075Y-53402680D01*
X122850048Y-53386715D01*
X123000045Y-53277738D01*
X123000047Y-53277735D01*
X123000051Y-53277733D01*
X123150363Y-53127421D01*
X123150365Y-53127417D01*
X123150368Y-53127415D01*
X123275307Y-52955449D01*
X123275306Y-52955449D01*
X123275310Y-52955445D01*
X123371816Y-52766041D01*
X123437505Y-52563872D01*
X123470759Y-52353916D01*
X123470759Y-52141342D01*
X123437505Y-51931386D01*
X123371816Y-51729217D01*
X123275310Y-51539813D01*
X123275308Y-51539810D01*
X123275307Y-51539808D01*
X123150368Y-51367842D01*
X123000051Y-51217525D01*
X122835463Y-51097945D01*
X122792799Y-51042618D01*
X122788935Y-50997629D01*
X125089759Y-50997629D01*
X125109753Y-51964865D01*
X125169702Y-52930457D01*
X125269497Y-53892693D01*
X125269498Y-53892705D01*
X125269500Y-53892717D01*
X125408979Y-54850048D01*
X125408981Y-54850058D01*
X125587902Y-55800797D01*
X125802693Y-56729217D01*
X125805961Y-56743339D01*
X126029804Y-57556287D01*
X126062789Y-57676079D01*
X126357930Y-58597374D01*
X126502966Y-58993028D01*
X126690904Y-59505714D01*
X127061126Y-60399511D01*
X127384946Y-61098129D01*
X127467971Y-61277248D01*
X127910729Y-62137403D01*
X128023095Y-62335160D01*
X128388672Y-62978554D01*
X128900959Y-63799224D01*
X129446723Y-64598022D01*
X130025031Y-65373584D01*
X130025047Y-65373604D01*
X130025048Y-65373605D01*
X130634878Y-66124566D01*
X130634895Y-66124585D01*
X131275273Y-66849742D01*
X131275279Y-66849748D01*
X131945070Y-67547816D01*
X132058721Y-67656863D01*
X132643145Y-68217614D01*
X133286273Y-68785553D01*
X133368320Y-68858008D01*
X134024613Y-69390961D01*
X134119303Y-69467856D01*
X134894865Y-70046164D01*
X135693663Y-70591928D01*
X136514333Y-71104215D01*
X137355472Y-71582151D01*
X137355483Y-71582157D01*
X137735772Y-71777907D01*
X138215643Y-72024918D01*
X139093376Y-72431761D01*
X139987173Y-72801983D01*
X140895505Y-73134954D01*
X141816821Y-73430102D01*
X142749548Y-73686926D01*
X143692091Y-73904985D01*
X144642839Y-74083908D01*
X145600170Y-74223387D01*
X146562447Y-74323186D01*
X147528026Y-74383134D01*
X148495258Y-74403128D01*
X149462490Y-74383134D01*
X150428069Y-74323186D01*
X151390346Y-74223387D01*
X152347677Y-74083908D01*
X153298425Y-73904985D01*
X154240968Y-73686926D01*
X155173695Y-73430102D01*
X156095011Y-73134954D01*
X157003343Y-72801983D01*
X157897140Y-72431761D01*
X158774873Y-72024918D01*
X159635044Y-71582151D01*
X160476183Y-71104215D01*
X161296853Y-70591928D01*
X162095651Y-70046164D01*
X162871213Y-69467856D01*
X163489286Y-68965939D01*
X163622195Y-68858008D01*
X163622203Y-68858000D01*
X163622214Y-68857992D01*
X164347371Y-68217614D01*
X165045445Y-67547816D01*
X165715243Y-66849742D01*
X166355621Y-66124585D01*
X166355629Y-66124574D01*
X166355637Y-66124566D01*
X166754071Y-65633924D01*
X166965485Y-65373584D01*
X167543793Y-64598022D01*
X168089557Y-63799224D01*
X168601844Y-62978554D01*
X169079780Y-62137415D01*
X169522547Y-61277244D01*
X169929390Y-60399511D01*
X170299612Y-59505714D01*
X170632583Y-58597382D01*
X170927731Y-57676066D01*
X171184555Y-56743339D01*
X171380327Y-55897129D01*
X171402614Y-55800797D01*
X171430099Y-55654747D01*
X171581537Y-54850048D01*
X171721016Y-53892717D01*
X171820815Y-52930440D01*
X171880763Y-51964861D01*
X171900757Y-50997629D01*
X171880763Y-50030397D01*
X171820815Y-49064818D01*
X171721016Y-48102541D01*
X171581537Y-47145210D01*
X171402614Y-46194462D01*
X171184555Y-45251919D01*
X170927731Y-44319192D01*
X170632583Y-43397876D01*
X170299612Y-42489544D01*
X169929390Y-41595747D01*
X169522547Y-40718014D01*
X169079780Y-39857843D01*
X168601844Y-39016704D01*
X168089557Y-38196034D01*
X167543793Y-37397236D01*
X166965485Y-36621674D01*
X166911407Y-36555082D01*
X166355637Y-35870691D01*
X165829970Y-35275432D01*
X165715243Y-35145516D01*
X165500115Y-34921306D01*
X165045445Y-34447441D01*
X164347377Y-33777650D01*
X164347371Y-33777644D01*
X163622214Y-33137266D01*
X163622195Y-33137249D01*
X162871234Y-32527419D01*
X162871233Y-32527418D01*
X162871213Y-32527402D01*
X162095651Y-31949094D01*
X162052459Y-31919584D01*
X161296844Y-31403324D01*
X160476189Y-30891047D01*
X160476183Y-30891043D01*
X159635044Y-30413107D01*
X159635032Y-30413100D01*
X158774877Y-29970342D01*
X158150954Y-29681144D01*
X157897140Y-29563497D01*
X157003343Y-29193275D01*
X156994267Y-29189948D01*
X156095003Y-28860301D01*
X155173708Y-28565160D01*
X155173704Y-28565158D01*
X155173695Y-28565156D01*
X154240968Y-28308332D01*
X154240969Y-28308332D01*
X154240961Y-28308330D01*
X153298430Y-28090274D01*
X153298425Y-28090273D01*
X152347677Y-27911350D01*
X151390346Y-27771871D01*
X151390334Y-27771869D01*
X151390322Y-27771868D01*
X150428086Y-27672073D01*
X149462494Y-27612124D01*
X148495258Y-27592130D01*
X147528021Y-27612124D01*
X146562429Y-27672073D01*
X145600193Y-27771868D01*
X145600178Y-27771870D01*
X145600170Y-27771871D01*
X144642839Y-27911350D01*
X144642829Y-27911351D01*
X144642828Y-27911352D01*
X143692085Y-28090274D01*
X142749554Y-28308330D01*
X142131256Y-28478577D01*
X141816821Y-28565156D01*
X141816817Y-28565157D01*
X141816807Y-28565160D01*
X140895512Y-28860301D01*
X139987177Y-29193273D01*
X139093375Y-29563497D01*
X138215638Y-29970342D01*
X137355483Y-30413100D01*
X136514326Y-30891047D01*
X135693671Y-31403324D01*
X134894865Y-31949093D01*
X134408730Y-32311586D01*
X134119303Y-32527402D01*
X134119294Y-32527409D01*
X134119281Y-32527419D01*
X133368320Y-33137249D01*
X132643138Y-33777650D01*
X131945070Y-34447441D01*
X131275279Y-35145509D01*
X130634878Y-35870691D01*
X130025048Y-36621652D01*
X130025038Y-36621665D01*
X130025031Y-36621674D01*
X129821062Y-36895215D01*
X129446722Y-37397236D01*
X128900953Y-38196042D01*
X128388676Y-39016697D01*
X127910729Y-39857854D01*
X127467971Y-40718009D01*
X127061126Y-41595746D01*
X126690902Y-42489548D01*
X126357930Y-43397883D01*
X126062789Y-44319178D01*
X125805959Y-45251925D01*
X125587903Y-46194456D01*
X125510162Y-46607551D01*
X125408979Y-47145210D01*
X125290931Y-47955449D01*
X125269497Y-48102564D01*
X125169702Y-49064800D01*
X125109753Y-50030392D01*
X125089759Y-50997629D01*
X122788935Y-50997629D01*
X122786820Y-50973005D01*
X122819425Y-50911209D01*
X122835458Y-50897315D01*
X123000051Y-50777733D01*
X123150363Y-50627421D01*
X123150365Y-50627417D01*
X123150368Y-50627415D01*
X123275307Y-50455449D01*
X123275306Y-50455449D01*
X123275310Y-50455445D01*
X123371816Y-50266041D01*
X123437505Y-50063872D01*
X123470759Y-49853916D01*
X123470759Y-49641342D01*
X123437505Y-49431386D01*
X123371816Y-49229217D01*
X123275310Y-49039813D01*
X123275308Y-49039810D01*
X123275307Y-49039808D01*
X123150368Y-48867842D01*
X123000051Y-48717525D01*
X122835463Y-48597945D01*
X122792799Y-48542618D01*
X122786820Y-48473005D01*
X122819425Y-48411209D01*
X122835458Y-48397315D01*
X123000051Y-48277733D01*
X123150363Y-48127421D01*
X123150365Y-48127417D01*
X123150368Y-48127415D01*
X123275307Y-47955449D01*
X123275306Y-47955449D01*
X123275310Y-47955445D01*
X123371816Y-47766041D01*
X123437505Y-47563872D01*
X123470759Y-47353916D01*
X123470759Y-47141342D01*
X123437505Y-46931386D01*
X123371816Y-46729217D01*
X123275310Y-46539813D01*
X123275308Y-46539810D01*
X123275307Y-46539808D01*
X123150368Y-46367842D01*
X123000050Y-46217524D01*
X122880683Y-46130800D01*
X122835463Y-46097945D01*
X122792799Y-46042618D01*
X122786820Y-45973005D01*
X122819425Y-45911209D01*
X122835458Y-45897315D01*
X123000051Y-45777733D01*
X123150363Y-45627421D01*
X123150365Y-45627417D01*
X123150368Y-45627415D01*
X123275307Y-45455449D01*
X123275306Y-45455449D01*
X123275310Y-45455445D01*
X123371816Y-45266041D01*
X123437505Y-45063872D01*
X123470759Y-44853916D01*
X123470759Y-44641342D01*
X123437505Y-44431386D01*
X123371816Y-44229217D01*
X123275310Y-44039813D01*
X123275308Y-44039810D01*
X123275307Y-44039808D01*
X123150368Y-43867842D01*
X123011553Y-43729027D01*
X122978068Y-43667704D01*
X122983052Y-43598012D01*
X123024924Y-43542079D01*
X123034138Y-43535807D01*
X123039590Y-43532443D01*
X123039593Y-43532443D01*
X123188915Y-43440341D01*
X123312971Y-43316285D01*
X123405073Y-43166963D01*
X123460258Y-43000426D01*
X123470759Y-42897638D01*
X123470758Y-41597621D01*
X123470566Y-41595746D01*
X123460258Y-41494832D01*
X123460257Y-41494829D01*
X123405073Y-41328295D01*
X123312971Y-41178973D01*
X123188915Y-41054917D01*
X123039593Y-40962815D01*
X122873056Y-40907630D01*
X122873054Y-40907629D01*
X122770275Y-40897129D01*
X122770268Y-40897129D01*
X121495099Y-40897129D01*
X121428060Y-40877444D01*
X121382305Y-40824640D01*
X121372361Y-40755482D01*
X121379807Y-40727481D01*
X121580776Y-40219893D01*
X121729987Y-39843029D01*
X121731692Y-39838940D01*
X121926574Y-39394083D01*
X122147646Y-38889441D01*
X122149454Y-38885506D01*
X122599271Y-37951451D01*
X122601234Y-37947555D01*
X123084255Y-37030316D01*
X123086393Y-37026430D01*
X123601992Y-36127182D01*
X123604249Y-36123403D01*
X124151832Y-35243184D01*
X124154239Y-35239467D01*
X124217474Y-35145516D01*
X124733072Y-34379464D01*
X124735593Y-34375859D01*
X125344920Y-33537192D01*
X125347550Y-33533707D01*
X125986571Y-32717477D01*
X125989310Y-32714105D01*
X126657289Y-31921255D01*
X126660153Y-31917977D01*
X127356108Y-31149678D01*
X127359118Y-31146473D01*
X128082229Y-30403620D01*
X128085308Y-30400569D01*
X128834635Y-29684140D01*
X128837861Y-29681165D01*
X129612350Y-28992160D01*
X129615664Y-28989316D01*
X130414458Y-28328495D01*
X130417904Y-28325748D01*
X131239771Y-27694130D01*
X131243342Y-27691487D01*
X131270575Y-27672072D01*
X132087479Y-27089688D01*
X132091057Y-27087232D01*
X132956252Y-26516122D01*
X132959929Y-26513788D01*
X133845045Y-25974117D01*
X133848848Y-25971892D01*
X134752746Y-25464352D01*
X134756566Y-25462296D01*
X135678171Y-24987492D01*
X135682047Y-24985582D01*
X136620081Y-24544177D01*
X136624105Y-24542372D01*
X137577290Y-24134961D01*
X137581368Y-24133304D01*
X138548575Y-23760368D01*
X138552682Y-23758868D01*
X139532703Y-23420873D01*
X139536897Y-23419510D01*
X140528417Y-23116912D01*
X140532632Y-23115708D01*
X141411573Y-22881605D01*
X141443487Y-22877429D01*
X143292088Y-22877429D01*
X143359127Y-22897114D01*
X143404882Y-22949918D01*
X143414826Y-23019076D01*
X143411863Y-23033522D01*
X143371931Y-23182551D01*
X143371929Y-23182561D01*
X143351514Y-23415907D01*
X143351514Y-23415908D01*
X143371929Y-23649254D01*
X143371931Y-23649264D01*
X143432553Y-23875511D01*
X143432555Y-23875515D01*
X143432556Y-23875519D01*
X143531551Y-24087815D01*
X143665907Y-24279695D01*
X143831541Y-24445329D01*
X144023421Y-24579685D01*
X144235717Y-24678680D01*
X144461977Y-24739306D01*
X144648657Y-24755638D01*
X144695327Y-24759722D01*
X144695328Y-24759722D01*
X144695329Y-24759722D01*
X144734219Y-24756319D01*
X144928679Y-24739306D01*
X145154939Y-24678680D01*
X145367235Y-24579685D01*
X145559115Y-24445329D01*
X145724749Y-24279695D01*
X145859105Y-24087815D01*
X145859105Y-24087813D01*
X145862210Y-24083380D01*
X145863651Y-24084389D01*
X145908500Y-24041620D01*
X145977106Y-24028392D01*
X146041973Y-24054355D01*
X146067622Y-24083956D01*
X146068446Y-24083380D01*
X146071550Y-24087813D01*
X146071551Y-24087815D01*
X146205907Y-24279695D01*
X146371541Y-24445329D01*
X146563421Y-24579685D01*
X146775717Y-24678680D01*
X147001977Y-24739306D01*
X147188657Y-24755638D01*
X147235327Y-24759722D01*
X147235328Y-24759722D01*
X147235329Y-24759722D01*
X147274219Y-24756319D01*
X147468679Y-24739306D01*
X147694939Y-24678680D01*
X147907235Y-24579685D01*
X148099115Y-24445329D01*
X148264749Y-24279695D01*
X148399105Y-24087815D01*
X148399105Y-24087813D01*
X148402210Y-24083380D01*
X148403651Y-24084389D01*
X148448500Y-24041620D01*
X148517106Y-24028392D01*
X148581973Y-24054355D01*
X148607622Y-24083956D01*
X148608446Y-24083380D01*
X148611550Y-24087813D01*
X148611551Y-24087815D01*
X148745907Y-24279695D01*
X148911541Y-24445329D01*
X149103421Y-24579685D01*
X149315717Y-24678680D01*
X149541977Y-24739306D01*
X149728657Y-24755638D01*
X149775327Y-24759722D01*
X149775328Y-24759722D01*
X149775329Y-24759722D01*
X149814219Y-24756319D01*
X150008679Y-24739306D01*
X150234939Y-24678680D01*
X150447235Y-24579685D01*
X150639115Y-24445329D01*
X150804749Y-24279695D01*
X150939105Y-24087815D01*
X151038100Y-23875519D01*
X151098726Y-23649259D01*
X151119142Y-23415908D01*
X151098726Y-23182557D01*
X151080812Y-23115699D01*
X151058793Y-23033522D01*
X151060456Y-22963672D01*
X151099619Y-22905810D01*
X151163848Y-22878306D01*
X151178568Y-22877429D01*
X152850567Y-22877429D01*
X152917606Y-22897114D01*
X152938248Y-22913748D01*
X153486417Y-23461917D01*
X153519902Y-23523240D01*
X153522264Y-23538789D01*
X153531929Y-23649254D01*
X153531931Y-23649264D01*
X153592553Y-23875511D01*
X153592555Y-23875515D01*
X153592556Y-23875519D01*
X153691551Y-24087815D01*
X153825907Y-24279695D01*
X153991541Y-24445329D01*
X154183421Y-24579685D01*
X154395717Y-24678680D01*
X154621977Y-24739306D01*
X154808657Y-24755638D01*
X154855327Y-24759722D01*
X154855328Y-24759722D01*
X154855329Y-24759722D01*
X154894219Y-24756319D01*
X155088679Y-24739306D01*
X155314939Y-24678680D01*
X155527235Y-24579685D01*
X155719115Y-24445329D01*
X155884749Y-24279695D01*
X156019105Y-24087815D01*
X156118100Y-23875519D01*
X156178726Y-23649259D01*
X156199142Y-23415908D01*
X156178726Y-23182557D01*
X156118100Y-22956297D01*
X156019105Y-22744001D01*
X155884749Y-22552121D01*
X155719115Y-22386487D01*
X155527235Y-22252131D01*
X155314939Y-22153136D01*
X155314935Y-22153135D01*
X155314931Y-22153133D01*
X155088684Y-22092511D01*
X155088674Y-22092509D01*
X154978209Y-22082844D01*
X154913141Y-22057391D01*
X154901337Y-22046997D01*
X154107797Y-21253457D01*
X154074312Y-21192134D01*
X154079296Y-21122442D01*
X154121168Y-21066509D01*
X154186632Y-21042092D01*
X154217744Y-21043791D01*
G37*
%TD.AperFunction*%
%TD*%
M02*
