M48
; DRILL file {KiCad 8.0.8} date 2025-03-04T17:08:28-0500
; FORMAT={-:-/ absolute / metric / decimal}
; #@! TF.CreationDate,2025-03-04T17:08:28-05:00
; #@! TF.GenerationSoftware,Kicad,Pcbnew,8.0.8
; #@! TF.FileFunction,NonPlated,1,2,NPTH
FMAT,2
METRIC
; #@! TA.AperFunction,NonPlated,NPTH,ComponentDrill
T1C0.500
; #@! TA.AperFunction,NonPlated,NPTH,ComponentDrill
T2C3.200
%
G90
G05
T1
X107.75Y-70.25
X107.75Y-71.75
X108.5Y-70.25
X108.5Y-71.75
X109.25Y-70.25
X109.25Y-71.75
X117.75Y-70.25
X117.75Y-71.75
X118.5Y-70.25
X118.5Y-71.75
X119.25Y-70.25
X119.25Y-71.75
X127.75Y-70.25
X127.75Y-71.75
X128.5Y-70.25
X128.5Y-71.75
X129.25Y-70.25
X129.25Y-71.75
X137.75Y-70.25
X137.75Y-71.75
X138.5Y-70.25
X138.5Y-71.75
X139.25Y-70.25
X139.25Y-71.75
X147.75Y-70.25
X147.75Y-71.75
X148.5Y-70.25
X148.5Y-71.75
X149.25Y-70.25
X149.25Y-71.75
X157.75Y-70.25
X157.75Y-71.75
X158.5Y-70.25
X158.5Y-71.75
X159.25Y-70.25
X159.25Y-71.75
X167.75Y-70.25
X167.75Y-71.75
X168.5Y-70.25
X168.5Y-71.75
X169.25Y-70.25
X169.25Y-71.75
X177.75Y-70.25
X177.75Y-71.75
X178.5Y-70.25
X178.5Y-71.75
X179.25Y-70.25
X179.25Y-71.75
X187.75Y-70.25
X187.75Y-71.75
X188.5Y-70.25
X188.5Y-71.75
X189.25Y-70.25
X189.25Y-71.75
T2
X107.5Y-118.0
X151.5Y-66.0
X161.1Y-76.0
X180.9Y-24.0
X189.5Y-66.0
X189.5Y-76.0
M30
