M48
; DRILL file {KiCad 8.0.8} date 2025-03-04T17:09:16-0500
; FORMAT={-:-/ absolute / metric / decimal}
; #@! TF.CreationDate,2025-03-04T17:09:16-05:00
; #@! TF.GenerationSoftware,Kicad,Pcbnew,8.0.8
; #@! TF.FileFunction,Plated,1,2,PTH
FMAT,2
METRIC
; #@! TA.AperFunction,Plated,PTH,ComponentDrill
T1C0.950
; #@! TA.AperFunction,Plated,PTH,ComponentDrill
T2C1.000
%
G90
G05
T1
X121.995Y-42.248
X121.995Y-44.748
X121.995Y-47.248
X121.995Y-49.748
X121.995Y-52.248
X121.995Y-54.748
X121.995Y-57.248
X121.995Y-59.748
X139.745Y-77.248
X142.245Y-77.248
X144.745Y-77.248
X147.245Y-77.248
X149.745Y-77.248
X152.245Y-77.248
X154.745Y-77.248
X157.245Y-77.248
T2
X132.495Y-73.598
X142.155Y-23.416
X144.695Y-23.416
X147.235Y-23.416
X149.775Y-23.416
X152.315Y-23.416
X154.855Y-23.416
X164.495Y-73.598
M30
