%TF.GenerationSoftware,KiCad,Pcbnew,8.0.8*%
%TF.CreationDate,2025-03-04T17:09:11-05:00*%
%TF.ProjectId,board_C,626f6172-645f-4432-9e6b-696361645f70,rev?*%
%TF.SameCoordinates,Original*%
%TF.FileFunction,Copper,L1,Top*%
%TF.FilePolarity,Positive*%
%FSLAX46Y46*%
G04 Gerber Fmt 4.6, Leading zero omitted, Abs format (unit mm)*
G04 Created by KiCad (PCBNEW 8.0.8) date 2025-03-04 17:09:11*
%MOMM*%
%LPD*%
G01*
G04 APERTURE LIST*
G04 Aperture macros list*
%AMRoundRect*
0 Rectangle with rounded corners*
0 $1 Rounding radius*
0 $2 $3 $4 $5 $6 $7 $8 $9 X,Y pos of 4 corners*
0 Add a 4 corners polygon primitive as box body*
4,1,4,$2,$3,$4,$5,$6,$7,$8,$9,$2,$3,0*
0 Add four circle primitives for the rounded corners*
1,1,$1+$1,$2,$3*
1,1,$1+$1,$4,$5*
1,1,$1+$1,$6,$7*
1,1,$1+$1,$8,$9*
0 Add four rect primitives between the rounded corners*
20,1,$1+$1,$2,$3,$4,$5,0*
20,1,$1+$1,$4,$5,$6,$7,0*
20,1,$1+$1,$6,$7,$8,$9,0*
20,1,$1+$1,$8,$9,$2,$3,0*%
G04 Aperture macros list end*
%TA.AperFunction,ComponentPad*%
%ADD10RoundRect,0.250000X-0.725000X0.600000X-0.725000X-0.600000X0.725000X-0.600000X0.725000X0.600000X0*%
%TD*%
%TA.AperFunction,ComponentPad*%
%ADD11O,1.950000X1.700000*%
%TD*%
%TA.AperFunction,ComponentPad*%
%ADD12C,1.676400*%
%TD*%
%TA.AperFunction,ComponentPad*%
%ADD13RoundRect,0.250000X-0.600000X-0.725000X0.600000X-0.725000X0.600000X0.725000X-0.600000X0.725000X0*%
%TD*%
%TA.AperFunction,ComponentPad*%
%ADD14O,1.700000X1.950000*%
%TD*%
%TA.AperFunction,Conductor*%
%ADD15C,0.500000*%
%TD*%
%TA.AperFunction,Conductor*%
%ADD16C,0.200000*%
%TD*%
G04 APERTURE END LIST*
D10*
%TO.P,J7,1,Pin_1*%
%TO.N,unconnected-(J7-Pin_1-Pad1)*%
X121995259Y-42247629D03*
D11*
%TO.P,J7,2,Pin_2*%
%TO.N,/RightSpeakerAndMic/3V3_SPK*%
X121995259Y-44747629D03*
%TO.P,J7,3,Pin_3*%
%TO.N,/RightSpeakerAndMic/LRCLK*%
X121995259Y-47247629D03*
%TO.P,J7,4,Pin_4*%
%TO.N,/RightSpeakerAndMic/DOUT*%
X121995259Y-49747629D03*
%TO.P,J7,5,Pin_5*%
%TO.N,/RightSpeakerAndMic/BCLK*%
X121995259Y-52247629D03*
%TO.P,J7,6,Pin_6*%
%TO.N,/RightSpeakerAndMic/GND_SPK*%
X121995259Y-54747629D03*
%TO.P,J7,7,Pin_7*%
%TO.N,/RightSpeakerAndMic/3V3_SPK*%
X121995259Y-57247629D03*
%TO.P,J7,8,Pin_8*%
%TO.N,unconnected-(J7-Pin_8-Pad8)*%
X121995259Y-59747629D03*
%TD*%
D12*
%TO.P,U8,1,SEL*%
%TO.N,/RightSpeakerAndMic/GND_SPK*%
X142155328Y-23415908D03*
%TO.P,U8,2,LRCLK*%
%TO.N,/RightSpeakerAndMic/LRCLK*%
X144695328Y-23415908D03*
%TO.P,U8,3,DOUT*%
%TO.N,/RightSpeakerAndMic/DOUT*%
X147235328Y-23415908D03*
%TO.P,U8,4,BCLK*%
%TO.N,/RightSpeakerAndMic/BCLK*%
X149775328Y-23415908D03*
%TO.P,U8,5,GND*%
%TO.N,/RightSpeakerAndMic/GND_SPK*%
X152315328Y-23415908D03*
%TO.P,U8,6,3V*%
%TO.N,/RightSpeakerAndMic/3V3_SPK*%
X154855328Y-23415908D03*
%TD*%
D13*
%TO.P,J5,1,Pin_1*%
%TO.N,/RightSpeakerAndMic/3V3_SPK*%
X139745259Y-77247629D03*
D14*
%TO.P,J5,2,Pin_2*%
%TO.N,/RightSpeakerAndMic/GND_SPK*%
X142245259Y-77247629D03*
%TO.P,J5,3,Pin_3*%
%TO.N,/RightSpeakerAndMic/Spk-*%
X144745259Y-77247629D03*
%TO.P,J5,4,Pin_4*%
%TO.N,/RightSpeakerAndMic/Spk+*%
X147245259Y-77247629D03*
%TO.P,J5,5,Pin_5*%
%TO.N,/RightSpeakerAndMic/LRCLK*%
X149745259Y-77247629D03*
%TO.P,J5,6,Pin_6*%
%TO.N,/RightSpeakerAndMic/DOUT*%
X152245259Y-77247629D03*
%TO.P,J5,7,Pin_7*%
%TO.N,/RightSpeakerAndMic/BCLK*%
X154745259Y-77247629D03*
%TO.P,J5,8,Pin_8*%
%TO.N,/RightSpeakerAndMic/GND_SPK*%
X157245259Y-77247629D03*
%TD*%
D12*
%TO.P,LS1,1,1*%
%TO.N,/RightSpeakerAndMic/Spk-*%
X132495259Y-73597629D03*
%TO.P,LS1,2,2*%
%TO.N,/RightSpeakerAndMic/Spk+*%
X164495259Y-73597629D03*
%TD*%
D15*
%TO.N,/RightSpeakerAndMic/Spk-*%
X143245259Y-78747629D02*
X144745259Y-77247629D01*
X138745259Y-78747629D02*
X143245259Y-78747629D01*
X132495259Y-73597629D02*
X133595259Y-73597629D01*
X133595259Y-73597629D02*
X138745259Y-78747629D01*
D16*
%TO.N,/RightSpeakerAndMic/LRCLK*%
X119745259Y-49497629D02*
X121995259Y-47247629D01*
X143619682Y-80997629D02*
X143336283Y-80954046D01*
X143336283Y-80954046D02*
X142264255Y-80749546D01*
X122977121Y-67515092D02*
X122400642Y-66588424D01*
X133139315Y-77231136D02*
X132207516Y-76663002D01*
X124227928Y-69303328D02*
X123586478Y-68420447D01*
X131296716Y-76061788D02*
X130408106Y-75428282D01*
X122400642Y-66588424D02*
X121857814Y-65641687D01*
X120437898Y-62693202D02*
X120245259Y-62206652D01*
X128701904Y-74067632D02*
X127886547Y-73342269D01*
X123586478Y-68420447D02*
X122977121Y-67515092D01*
X141200326Y-80506711D02*
X140145750Y-80225829D01*
X132207516Y-76663002D02*
X131296716Y-76061788D01*
X121857814Y-65641687D02*
X121349317Y-64676071D01*
X120245259Y-62206652D02*
X120036150Y-61678504D01*
X120875811Y-63692825D02*
X120437898Y-62693202D01*
X125603836Y-70997247D02*
X124900700Y-70162669D01*
X129542785Y-74763270D02*
X128701904Y-74067632D01*
X135061049Y-78265265D02*
X134090877Y-77765440D01*
X120036150Y-61678504D02*
X119745259Y-60859001D01*
X144695328Y-23415908D02*
X144663538Y-23415908D01*
X137551612Y-79351481D02*
X137051996Y-79158838D01*
X123270259Y-45972629D02*
X121995259Y-47247629D01*
X143525338Y-22277708D02*
X138965180Y-22277708D01*
X123270259Y-37972629D02*
X123270259Y-45972629D01*
X124900700Y-70162669D02*
X124227928Y-69303328D01*
X144663538Y-23415908D02*
X143525338Y-22277708D01*
X138070256Y-79551461D02*
X137551612Y-79351481D01*
X119745259Y-60859001D02*
X119745259Y-49497629D01*
X127886547Y-73342269D02*
X127097735Y-72588088D01*
X126336506Y-71806078D02*
X125603836Y-70997247D01*
X145995259Y-80997629D02*
X143619682Y-80997629D01*
X130408106Y-75428282D02*
X129542785Y-74763270D01*
X140145750Y-80225829D02*
X139101925Y-79907268D01*
X121349317Y-64676071D02*
X120875811Y-63692825D01*
X127097735Y-72588088D02*
X126336506Y-71806078D01*
X149745259Y-77247629D02*
X145995259Y-80997629D01*
X137051996Y-79158838D02*
X136048487Y-78729918D01*
X136048487Y-78729918D02*
X135061049Y-78265265D01*
X139101925Y-79907268D02*
X138070256Y-79551461D01*
X142264255Y-80749546D02*
X141200326Y-80506711D01*
X134090877Y-77765440D02*
X133139315Y-77231136D01*
X138965180Y-22277708D02*
X123270259Y-37972629D01*
%TO.N,/RightSpeakerAndMic/DOUT*%
X120720259Y-60223975D02*
X121393913Y-60897629D01*
X147235328Y-23415908D02*
X146097128Y-24554108D01*
X150745259Y-75747629D02*
X152245259Y-77247629D01*
X121995259Y-49747629D02*
X121995259Y-49997629D01*
X121393913Y-55897629D02*
X121393913Y-56097629D01*
X139188780Y-24554108D02*
X124245259Y-39497629D01*
X146097128Y-24554108D02*
X139188780Y-24554108D01*
X124245259Y-39497629D02*
X124245259Y-47497629D01*
X123020259Y-60897629D02*
X137870259Y-75747629D01*
X121393913Y-56097629D02*
X120720259Y-56771283D01*
X124245259Y-47497629D02*
X121995259Y-49747629D01*
X121393913Y-58597629D02*
X120720259Y-59271283D01*
X121393913Y-58397629D02*
X121393913Y-58597629D01*
X120720259Y-52723975D02*
X121393913Y-53397629D01*
X120720259Y-57723975D02*
X121393913Y-58397629D01*
X121393913Y-60897629D02*
X123020259Y-60897629D01*
X120720259Y-54271283D02*
X120720259Y-55223975D01*
X121995259Y-49997629D02*
X120720259Y-51272629D01*
X120720259Y-59271283D02*
X120720259Y-60223975D01*
X121393913Y-53597629D02*
X120720259Y-54271283D01*
X120720259Y-55223975D02*
X121393913Y-55897629D01*
X120720259Y-56771283D02*
X120720259Y-57723975D01*
X121393913Y-53397629D02*
X121393913Y-53597629D01*
X137870259Y-75747629D02*
X150745259Y-75747629D01*
X120720259Y-51272629D02*
X120720259Y-52723975D01*
%TO.N,/RightSpeakerAndMic/BCLK*%
X124245259Y-54622629D02*
X124245259Y-59990636D01*
X125245259Y-47531266D02*
X125239800Y-47563542D01*
X125116392Y-48540418D02*
X125062666Y-49180222D01*
X139995259Y-26247629D02*
X125245259Y-40997629D01*
X138759896Y-74505273D02*
X152002903Y-74505273D01*
X149775328Y-23415908D02*
X146943607Y-26247629D01*
X125239800Y-47563542D02*
X125116392Y-48540418D01*
X121995259Y-52372629D02*
X124245259Y-54622629D01*
X121995259Y-52247629D02*
X121995259Y-52372629D01*
X152002903Y-74505273D02*
X154745259Y-77247629D01*
X124245259Y-59990636D02*
X138759896Y-74505273D01*
X125062666Y-49180222D02*
X121995259Y-52247629D01*
X146943607Y-26247629D02*
X139995259Y-26247629D01*
X125245259Y-40997629D02*
X125245259Y-47531266D01*
%TD*%
M02*
