%TF.GenerationSoftware,KiCad,Pcbnew,8.0.8*%
%TF.CreationDate,2025-03-04T17:08:21-05:00*%
%TF.ProjectId,board_AB,626f6172-645f-4414-922e-6b696361645f,rev?*%
%TF.SameCoordinates,Original*%
%TF.FileFunction,Soldermask,Top*%
%TF.FilePolarity,Negative*%
%FSLAX46Y46*%
G04 Gerber Fmt 4.6, Leading zero omitted, Abs format (unit mm)*
G04 Created by KiCad (PCBNEW 8.0.8) date 2025-03-04 17:08:21*
%MOMM*%
%LPD*%
G01*
G04 APERTURE LIST*
G04 Aperture macros list*
%AMRoundRect*
0 Rectangle with rounded corners*
0 $1 Rounding radius*
0 $2 $3 $4 $5 $6 $7 $8 $9 X,Y pos of 4 corners*
0 Add a 4 corners polygon primitive as box body*
4,1,4,$2,$3,$4,$5,$6,$7,$8,$9,$2,$3,0*
0 Add four circle primitives for the rounded corners*
1,1,$1+$1,$2,$3*
1,1,$1+$1,$4,$5*
1,1,$1+$1,$6,$7*
1,1,$1+$1,$8,$9*
0 Add four rect primitives between the rounded corners*
20,1,$1+$1,$2,$3,$4,$5,0*
20,1,$1+$1,$4,$5,$6,$7,0*
20,1,$1+$1,$6,$7,$8,$9,0*
20,1,$1+$1,$8,$9,$2,$3,0*%
G04 Aperture macros list end*
%ADD10R,1.700000X1.700000*%
%ADD11O,1.700000X1.700000*%
%ADD12RoundRect,0.250000X0.475000X-0.250000X0.475000X0.250000X-0.475000X0.250000X-0.475000X-0.250000X0*%
%ADD13R,1.800000X1.800000*%
%ADD14C,1.800000*%
%ADD15RoundRect,0.250000X0.262500X0.450000X-0.262500X0.450000X-0.262500X-0.450000X0.262500X-0.450000X0*%
%ADD16C,3.200000*%
%ADD17RoundRect,0.250000X0.250000X0.475000X-0.250000X0.475000X-0.250000X-0.475000X0.250000X-0.475000X0*%
%ADD18O,2.200000X3.500000*%
%ADD19R,1.500000X2.500000*%
%ADD20O,1.500000X2.500000*%
%ADD21RoundRect,0.101600X-0.889000X0.889000X-0.889000X-0.889000X0.889000X-0.889000X0.889000X0.889000X0*%
%ADD22C,1.981200*%
%ADD23C,2.387600*%
%ADD24C,0.500000*%
%ADD25C,2.000000*%
%ADD26RoundRect,0.050000X-0.375000X-0.050000X0.375000X-0.050000X0.375000X0.050000X-0.375000X0.050000X0*%
%ADD27RoundRect,0.050000X-0.050000X-0.375000X0.050000X-0.375000X0.050000X0.375000X-0.050000X0.375000X0*%
%ADD28R,1.650000X1.650000*%
%ADD29C,1.778000*%
%ADD30RoundRect,0.150000X-0.587500X-0.150000X0.587500X-0.150000X0.587500X0.150000X-0.587500X0.150000X0*%
%ADD31RoundRect,0.250000X-0.262500X-0.450000X0.262500X-0.450000X0.262500X0.450000X-0.262500X0.450000X0*%
%ADD32C,1.524000*%
%ADD33RoundRect,0.250000X-0.475000X0.250000X-0.475000X-0.250000X0.475000X-0.250000X0.475000X0.250000X0*%
%ADD34RoundRect,0.250000X-0.250000X-0.475000X0.250000X-0.475000X0.250000X0.475000X-0.250000X0.475000X0*%
%ADD35RoundRect,0.250000X-0.600000X-0.725000X0.600000X-0.725000X0.600000X0.725000X-0.600000X0.725000X0*%
%ADD36O,1.700000X1.950000*%
%ADD37C,1.879600*%
%ADD38R,1.600000X1.600000*%
%ADD39C,1.600000*%
%ADD40R,1.300000X1.300000*%
%ADD41C,1.300000*%
G04 APERTURE END LIST*
D10*
%TO.C,J2*%
X148880000Y-104540000D03*
D11*
X148880000Y-102000000D03*
X151420000Y-104540000D03*
X151420000Y-102000000D03*
X153960000Y-104540000D03*
X153960000Y-102000000D03*
X156500000Y-104540000D03*
X156500000Y-102000000D03*
X159040000Y-104540000D03*
X159040000Y-102000000D03*
X161580000Y-104540000D03*
X161580000Y-102000000D03*
%TD*%
D12*
%TO.C,FB1*%
X143500000Y-86450000D03*
X143500000Y-84550000D03*
%TD*%
D13*
%TO.C,D1*%
X182775000Y-66000000D03*
D14*
X180235000Y-66000000D03*
%TD*%
D15*
%TO.C,R6*%
X166412500Y-45000000D03*
X164587500Y-45000000D03*
%TD*%
D12*
%TO.C,C6*%
X143500000Y-90450000D03*
X143500000Y-88550000D03*
%TD*%
D15*
%TO.C,R5*%
X138412500Y-53000000D03*
X136587500Y-53000000D03*
%TD*%
D16*
%TO.C,H2*%
X151500000Y-66000000D03*
%TD*%
D17*
%TO.C,C1*%
X147000000Y-77500000D03*
X145100000Y-77500000D03*
%TD*%
D18*
%TO.C,SW1*%
X136400000Y-66500000D03*
X144600000Y-66500000D03*
D19*
X138500000Y-66500000D03*
D20*
X140500000Y-66500000D03*
X142500000Y-66500000D03*
%TD*%
D17*
%TO.C,C5*%
X152950000Y-79500000D03*
X151050000Y-79500000D03*
%TD*%
D15*
%TO.C,R7*%
X166412500Y-43000000D03*
X164587500Y-43000000D03*
%TD*%
D21*
%TO.C,U4*%
X131000000Y-75000000D03*
D22*
X128460000Y-75000000D03*
X125920000Y-75000000D03*
X123380000Y-75000000D03*
X120840000Y-75000000D03*
X118300000Y-75000000D03*
X115760000Y-75000000D03*
X113220000Y-75000000D03*
X110680000Y-75000000D03*
X108140000Y-75000000D03*
D23*
X125180000Y-91510000D03*
X121680000Y-91510000D03*
X117560000Y-91510000D03*
X114060000Y-91510000D03*
%TD*%
D24*
%TO.C,mouse-bite-2mm-slot2*%
X127750000Y-70250000D03*
X127750000Y-71750000D03*
X128500000Y-70250000D03*
X128500000Y-71750000D03*
X129250000Y-70250000D03*
X129250000Y-71750000D03*
%TD*%
D25*
%TO.C,SW4*%
X106500000Y-62000000D03*
X113000000Y-62000000D03*
X106500000Y-66500000D03*
X113000000Y-66500000D03*
%TD*%
D26*
%TO.C,U6*%
X145850000Y-86750000D03*
X145850000Y-87150000D03*
X145850000Y-87550000D03*
X145850000Y-87950000D03*
X145850000Y-88350000D03*
D27*
X146500000Y-89000000D03*
X146900000Y-89000000D03*
X147300000Y-89000000D03*
X147700000Y-89000000D03*
X148100000Y-89000000D03*
D26*
X148750000Y-88350000D03*
X148750000Y-87950000D03*
X148750000Y-87550000D03*
X148750000Y-87150000D03*
X148750000Y-86750000D03*
D27*
X148100000Y-86100000D03*
X147700000Y-86100000D03*
X147300000Y-86100000D03*
X146900000Y-86100000D03*
X146500000Y-86100000D03*
D28*
X147300000Y-87550000D03*
%TD*%
D12*
%TO.C,C2*%
X143000000Y-81450000D03*
X143000000Y-79550000D03*
%TD*%
D16*
%TO.C,H5*%
X161100000Y-76000000D03*
%TD*%
D15*
%TO.C,R8*%
X166500000Y-41000000D03*
X164675000Y-41000000D03*
%TD*%
D24*
%TO.C,mouse-bite-2mm-slot4*%
X147750000Y-70250000D03*
X147750000Y-71750000D03*
X148500000Y-70250000D03*
X148500000Y-71750000D03*
X149250000Y-70250000D03*
X149250000Y-71750000D03*
%TD*%
D29*
%TO.C,U7*%
X190690000Y-89015000D03*
X190690000Y-91555000D03*
X190690000Y-94095000D03*
X190690000Y-96635000D03*
X190690000Y-99175000D03*
X190690000Y-101715000D03*
%TD*%
D16*
%TO.C,H3*%
X180900000Y-24000000D03*
%TD*%
%TO.C,H6*%
X107500000Y-118000000D03*
%TD*%
D30*
%TO.C,U5*%
X145125000Y-79550000D03*
X145125000Y-81450000D03*
X147000000Y-80500000D03*
%TD*%
D25*
%TO.C,SW3*%
X106500000Y-53750000D03*
X113000000Y-53750000D03*
X106500000Y-58250000D03*
X113000000Y-58250000D03*
%TD*%
D31*
%TO.C,R9*%
X179087500Y-61500000D03*
X180912500Y-61500000D03*
%TD*%
D24*
%TO.C,mouse-bite-2mm-slot8*%
X187750000Y-70250000D03*
X187750000Y-71750000D03*
X188500000Y-70250000D03*
X188500000Y-71750000D03*
X189250000Y-70250000D03*
X189250000Y-71750000D03*
%TD*%
%TO.C,mouse-bite-2mm-slot5*%
X157750000Y-70250000D03*
X157750000Y-71750000D03*
X158500000Y-70250000D03*
X158500000Y-71750000D03*
X159250000Y-70250000D03*
X159250000Y-71750000D03*
%TD*%
D16*
%TO.C,H1*%
X189500000Y-66000000D03*
%TD*%
D32*
%TO.C,U3*%
X190500000Y-46000000D03*
X190500000Y-44000000D03*
X190500000Y-42000000D03*
X190500000Y-40000000D03*
X190500000Y-38000000D03*
X190500000Y-36000000D03*
X190500000Y-34000000D03*
X190500000Y-32000000D03*
X190500000Y-30000000D03*
X190500000Y-28000000D03*
X169500000Y-28000000D03*
X169500000Y-30000000D03*
X169500000Y-32000000D03*
X169500000Y-34000000D03*
X169500000Y-36000000D03*
X169500000Y-38000000D03*
X169500000Y-40000000D03*
X169500000Y-42000000D03*
X169500000Y-44000000D03*
X169500000Y-46000000D03*
%TD*%
D33*
%TO.C,C7*%
X146500000Y-92050000D03*
X146500000Y-93950000D03*
%TD*%
D15*
%TO.C,R2*%
X152912500Y-81500000D03*
X151087500Y-81500000D03*
%TD*%
D34*
%TO.C,C4*%
X139600000Y-85000000D03*
X141500000Y-85000000D03*
%TD*%
D24*
%TO.C,mouse-bite-2mm-slot7*%
X177750000Y-70250000D03*
X177750000Y-71750000D03*
X178500000Y-70250000D03*
X178500000Y-71750000D03*
X179250000Y-70250000D03*
X179250000Y-71750000D03*
%TD*%
D34*
%TO.C,C3*%
X139600000Y-87500000D03*
X141500000Y-87500000D03*
%TD*%
D24*
%TO.C,mouse-bite-2mm-slot6*%
X167750000Y-70250000D03*
X167750000Y-71750000D03*
X168500000Y-70250000D03*
X168500000Y-71750000D03*
X169250000Y-70250000D03*
X169250000Y-71750000D03*
%TD*%
D15*
%TO.C,R1*%
X152912500Y-83500000D03*
X151087500Y-83500000D03*
%TD*%
%TO.C,R10*%
X160500000Y-41000000D03*
X158675000Y-41000000D03*
%TD*%
D35*
%TO.C,J3*%
X145000000Y-111980000D03*
D36*
X147500000Y-111980000D03*
X150000000Y-111980000D03*
X152500000Y-111980000D03*
X155000000Y-111980000D03*
X157500000Y-111980000D03*
X160000000Y-111980000D03*
X162500000Y-111980000D03*
%TD*%
D24*
%TO.C,mouse-bite-2mm-slot*%
X107750000Y-70250000D03*
X107750000Y-71750000D03*
X108500000Y-70250000D03*
X108500000Y-71750000D03*
X109250000Y-70250000D03*
X109250000Y-71750000D03*
%TD*%
D33*
%TO.C,C8*%
X149000000Y-92050000D03*
X149000000Y-93950000D03*
%TD*%
D37*
%TO.C,U2*%
X131885000Y-63540000D03*
X131885000Y-61000000D03*
X131885000Y-58460000D03*
X131885000Y-55920000D03*
X131885000Y-53380000D03*
X131885000Y-50840000D03*
X131885000Y-48300000D03*
X131885000Y-45760000D03*
%TD*%
D24*
%TO.C,mouse-bite-2mm-slot3*%
X137750000Y-70250000D03*
X137750000Y-71750000D03*
X138500000Y-70250000D03*
X138500000Y-71750000D03*
X139250000Y-70250000D03*
X139250000Y-71750000D03*
%TD*%
%TO.C,mouse-bite-2mm-slot1*%
X117750000Y-70250000D03*
X117750000Y-71750000D03*
X118500000Y-70250000D03*
X118500000Y-71750000D03*
X119250000Y-70250000D03*
X119250000Y-71750000D03*
%TD*%
D35*
%TO.C,J4*%
X171000000Y-112000000D03*
D36*
X173500000Y-112000000D03*
X176000000Y-112000000D03*
X178500000Y-112000000D03*
X181000000Y-112000000D03*
X183500000Y-112000000D03*
X186000000Y-112000000D03*
X188500000Y-112000000D03*
%TD*%
D25*
%TO.C,SW2*%
X106500000Y-45500000D03*
X113000000Y-45500000D03*
X106500000Y-50000000D03*
X113000000Y-50000000D03*
%TD*%
D31*
%TO.C,R4*%
X136587500Y-51000000D03*
X138412500Y-51000000D03*
%TD*%
D38*
%TO.C,U1*%
X106530000Y-37801600D03*
D39*
X109070000Y-37801600D03*
X111610000Y-37801600D03*
X114150000Y-37801600D03*
X116690000Y-37801600D03*
X119230000Y-37801600D03*
X121770000Y-37801600D03*
X124310000Y-37801600D03*
X126850000Y-37801600D03*
X129390000Y-37801600D03*
X131930000Y-37801600D03*
X134470000Y-37801600D03*
X137010000Y-37801600D03*
X139550000Y-37801600D03*
X142090000Y-37801600D03*
X144630000Y-37801600D03*
X147170000Y-37801600D03*
X149710000Y-37801600D03*
X152250000Y-37801600D03*
X154790000Y-37801600D03*
X157330000Y-37801600D03*
X159870000Y-37801600D03*
X162410000Y-37801600D03*
X164950000Y-37801600D03*
X164950000Y-22561600D03*
X162410000Y-22561600D03*
X159870000Y-22561600D03*
X157330000Y-22561600D03*
X154790000Y-22561600D03*
X152250000Y-22561600D03*
X149710000Y-22561600D03*
X147170000Y-22561600D03*
X144630000Y-22561600D03*
X142090000Y-22561600D03*
X139550000Y-22561600D03*
X137010000Y-22561600D03*
X134470000Y-22561600D03*
X131930000Y-22561600D03*
X129390000Y-22561600D03*
X126850000Y-22561600D03*
X124310000Y-22561600D03*
X121770000Y-22561600D03*
X119230000Y-22561600D03*
X116690000Y-22561600D03*
X114150000Y-22561600D03*
X111610000Y-22561600D03*
X109070000Y-22561600D03*
X106530000Y-22561600D03*
X109070000Y-25101600D03*
X152250000Y-35261600D03*
X152250000Y-32721600D03*
X152250000Y-30181600D03*
X152250000Y-27641600D03*
X152250000Y-25101600D03*
D38*
X112829200Y-34750800D03*
D39*
X115369200Y-34750800D03*
X117909200Y-34750800D03*
X120449200Y-34750800D03*
X122989200Y-34750800D03*
D40*
X119500000Y-25000000D03*
D41*
X119500000Y-27000000D03*
X119500000Y-29000000D03*
X121500000Y-29000000D03*
X121500000Y-27000000D03*
X121500000Y-25000000D03*
X107260000Y-28911600D03*
X107260000Y-31451600D03*
%TD*%
D10*
%TO.C,J1*%
X148880000Y-52540000D03*
D11*
X148880000Y-50000000D03*
X151420000Y-52540000D03*
X151420000Y-50000000D03*
X153960000Y-52540000D03*
X153960000Y-50000000D03*
X156500000Y-52540000D03*
X156500000Y-50000000D03*
X159040000Y-52540000D03*
X159040000Y-50000000D03*
X161580000Y-52540000D03*
X161580000Y-50000000D03*
%TD*%
D16*
%TO.C,H4*%
X189500000Y-76000000D03*
%TD*%
D31*
%TO.C,R3*%
X151587500Y-89000000D03*
X153412500Y-89000000D03*
%TD*%
M02*
