%TF.GenerationSoftware,KiCad,Pcbnew,8.0.8*%
%TF.CreationDate,2025-03-04T17:08:21-05:00*%
%TF.ProjectId,board_AB,626f6172-645f-4414-922e-6b696361645f,rev?*%
%TF.SameCoordinates,Original*%
%TF.FileFunction,Profile,NP*%
%FSLAX46Y46*%
G04 Gerber Fmt 4.6, Leading zero omitted, Abs format (unit mm)*
G04 Created by KiCad (PCBNEW 8.0.8) date 2025-03-04 17:08:21*
%MOMM*%
%LPD*%
G01*
G04 APERTURE LIST*
%TA.AperFunction,Profile*%
%ADD10C,0.100000*%
%TD*%
G04 APERTURE END LIST*
D10*
X103500000Y-72000000D02*
X106500000Y-72000000D01*
X176500000Y-70000000D02*
G75*
G02*
X176500000Y-72000000I0J-1000000D01*
G01*
X190500000Y-72000000D02*
X193500000Y-72000000D01*
X156500000Y-70000000D02*
X150500000Y-70000000D01*
X150500000Y-72000000D02*
X156500000Y-72000000D01*
X156500000Y-70000000D02*
G75*
G02*
X156500000Y-72000000I0J-1000000D01*
G01*
X110500000Y-72000000D02*
X116500000Y-72000000D01*
X170500000Y-72000000D02*
X176500000Y-72000000D01*
X116500000Y-70000000D02*
G75*
G02*
X116500000Y-72000000I0J-1000000D01*
G01*
X193500000Y-20000000D02*
X193500000Y-70000000D01*
X140500000Y-72000000D02*
G75*
G02*
X140500000Y-70000000I0J1000000D01*
G01*
X180500000Y-72000000D02*
G75*
G02*
X180500000Y-70000000I0J1000000D01*
G01*
X110500000Y-72000000D02*
G75*
G02*
X110500000Y-70000000I0J1000000D01*
G01*
X190500000Y-72000000D02*
G75*
G02*
X190500000Y-70000000I0J1000000D01*
G01*
X176500000Y-70000000D02*
X170500000Y-70000000D01*
X160500000Y-72000000D02*
G75*
G02*
X160500000Y-70000000I0J1000000D01*
G01*
X103500000Y-70000000D02*
X103500000Y-20000000D01*
X140500000Y-72000000D02*
X146500000Y-72000000D01*
X130500000Y-72000000D02*
G75*
G02*
X130500000Y-70000000I0J1000000D01*
G01*
X103500000Y-122000000D02*
X103500000Y-72000000D01*
X146500000Y-70000000D02*
X140500000Y-70000000D01*
X126500000Y-70000000D02*
G75*
G02*
X126500000Y-72000000I0J-1000000D01*
G01*
X186500000Y-70000000D02*
X180500000Y-70000000D01*
X106500000Y-70000000D02*
X103500000Y-70000000D01*
X166500000Y-70000000D02*
X160500000Y-70000000D01*
X106500000Y-70000000D02*
G75*
G02*
X106500000Y-72000000I0J-1000000D01*
G01*
X136500000Y-70000000D02*
G75*
G02*
X136500000Y-72000000I0J-1000000D01*
G01*
X193500000Y-72000000D02*
X193500000Y-122000000D01*
X170500000Y-72000000D02*
G75*
G02*
X170500000Y-70000000I0J1000000D01*
G01*
X130500000Y-72000000D02*
X136500000Y-72000000D01*
X193500000Y-70000000D02*
X190500000Y-70000000D01*
X180500000Y-72000000D02*
X186500000Y-72000000D01*
X186500000Y-70000000D02*
G75*
G02*
X186500000Y-72000000I0J-1000000D01*
G01*
X126500000Y-70000000D02*
X120500000Y-70000000D01*
X166500000Y-70000000D02*
G75*
G02*
X166500000Y-72000000I0J-1000000D01*
G01*
X120500000Y-72000000D02*
X126500000Y-72000000D01*
X150500000Y-72000000D02*
G75*
G02*
X150500000Y-70000000I0J1000000D01*
G01*
X116500000Y-70000000D02*
X110500000Y-70000000D01*
X103500000Y-20000000D02*
X193500000Y-20000000D01*
X193500000Y-122000000D02*
X103500000Y-122000000D01*
X136500000Y-70000000D02*
X130500000Y-70000000D01*
X146500000Y-70000000D02*
G75*
G02*
X146500000Y-72000000I0J-1000000D01*
G01*
X120500000Y-72000000D02*
G75*
G02*
X120500000Y-70000000I0J1000000D01*
G01*
X160500000Y-72000000D02*
X166500000Y-72000000D01*
M02*
