%TF.GenerationSoftware,KiCad,Pcbnew,8.0.8*%
%TF.CreationDate,2025-03-04T17:09:11-05:00*%
%TF.ProjectId,board_C,626f6172-645f-4432-9e6b-696361645f70,rev?*%
%TF.SameCoordinates,Original*%
%TF.FileFunction,Legend,Bot*%
%TF.FilePolarity,Positive*%
%FSLAX46Y46*%
G04 Gerber Fmt 4.6, Leading zero omitted, Abs format (unit mm)*
G04 Created by KiCad (PCBNEW 8.0.8) date 2025-03-04 17:09:11*
%MOMM*%
%LPD*%
G01*
G04 APERTURE LIST*
%ADD10C,0.100000*%
G04 APERTURE END LIST*
D10*
X177592727Y-54336601D02*
X177592727Y-53765173D01*
X176592727Y-54050887D02*
X177592727Y-54050887D01*
X176592727Y-53431839D02*
X177259394Y-53431839D01*
X177068918Y-53431839D02*
X177164156Y-53384220D01*
X177164156Y-53384220D02*
X177211775Y-53336601D01*
X177211775Y-53336601D02*
X177259394Y-53241363D01*
X177259394Y-53241363D02*
X177259394Y-53146125D01*
X176592727Y-52384220D02*
X177116537Y-52384220D01*
X177116537Y-52384220D02*
X177211775Y-52431839D01*
X177211775Y-52431839D02*
X177259394Y-52527077D01*
X177259394Y-52527077D02*
X177259394Y-52717553D01*
X177259394Y-52717553D02*
X177211775Y-52812791D01*
X176640347Y-52384220D02*
X176592727Y-52479458D01*
X176592727Y-52479458D02*
X176592727Y-52717553D01*
X176592727Y-52717553D02*
X176640347Y-52812791D01*
X176640347Y-52812791D02*
X176735585Y-52860410D01*
X176735585Y-52860410D02*
X176830823Y-52860410D01*
X176830823Y-52860410D02*
X176926061Y-52812791D01*
X176926061Y-52812791D02*
X176973680Y-52717553D01*
X176973680Y-52717553D02*
X176973680Y-52479458D01*
X176973680Y-52479458D02*
X177021299Y-52384220D01*
X177259394Y-52003267D02*
X176592727Y-51765172D01*
X176592727Y-51765172D02*
X177259394Y-51527077D01*
X176592727Y-51146124D02*
X177259394Y-51146124D01*
X177592727Y-51146124D02*
X177545108Y-51193743D01*
X177545108Y-51193743D02*
X177497489Y-51146124D01*
X177497489Y-51146124D02*
X177545108Y-51098505D01*
X177545108Y-51098505D02*
X177592727Y-51146124D01*
X177592727Y-51146124D02*
X177497489Y-51146124D01*
X176640347Y-50717553D02*
X176592727Y-50622315D01*
X176592727Y-50622315D02*
X176592727Y-50431839D01*
X176592727Y-50431839D02*
X176640347Y-50336601D01*
X176640347Y-50336601D02*
X176735585Y-50288982D01*
X176735585Y-50288982D02*
X176783204Y-50288982D01*
X176783204Y-50288982D02*
X176878442Y-50336601D01*
X176878442Y-50336601D02*
X176926061Y-50431839D01*
X176926061Y-50431839D02*
X176926061Y-50574696D01*
X176926061Y-50574696D02*
X176973680Y-50669934D01*
X176973680Y-50669934D02*
X177068918Y-50717553D01*
X177068918Y-50717553D02*
X177116537Y-50717553D01*
X177116537Y-50717553D02*
X177211775Y-50669934D01*
X177211775Y-50669934D02*
X177259394Y-50574696D01*
X177259394Y-50574696D02*
X177259394Y-50431839D01*
X177259394Y-50431839D02*
X177211775Y-50336601D01*
X176592727Y-49098505D02*
X177592727Y-49098505D01*
X177592727Y-49098505D02*
X177592727Y-48860410D01*
X177592727Y-48860410D02*
X177545108Y-48717553D01*
X177545108Y-48717553D02*
X177449870Y-48622315D01*
X177449870Y-48622315D02*
X177354632Y-48574696D01*
X177354632Y-48574696D02*
X177164156Y-48527077D01*
X177164156Y-48527077D02*
X177021299Y-48527077D01*
X177021299Y-48527077D02*
X176830823Y-48574696D01*
X176830823Y-48574696D02*
X176735585Y-48622315D01*
X176735585Y-48622315D02*
X176640347Y-48717553D01*
X176640347Y-48717553D02*
X176592727Y-48860410D01*
X176592727Y-48860410D02*
X176592727Y-49098505D01*
X176687966Y-48098505D02*
X176640347Y-48050886D01*
X176640347Y-48050886D02*
X176592727Y-48098505D01*
X176592727Y-48098505D02*
X176640347Y-48146124D01*
X176640347Y-48146124D02*
X176687966Y-48098505D01*
X176687966Y-48098505D02*
X176592727Y-48098505D01*
X174982783Y-54193744D02*
X175982783Y-54193744D01*
X175982783Y-54193744D02*
X174982783Y-53622316D01*
X174982783Y-53622316D02*
X175982783Y-53622316D01*
X174982783Y-53146125D02*
X175649450Y-53146125D01*
X175982783Y-53146125D02*
X175935164Y-53193744D01*
X175935164Y-53193744D02*
X175887545Y-53146125D01*
X175887545Y-53146125D02*
X175935164Y-53098506D01*
X175935164Y-53098506D02*
X175982783Y-53146125D01*
X175982783Y-53146125D02*
X175887545Y-53146125D01*
X175030403Y-52241364D02*
X174982783Y-52336602D01*
X174982783Y-52336602D02*
X174982783Y-52527078D01*
X174982783Y-52527078D02*
X175030403Y-52622316D01*
X175030403Y-52622316D02*
X175078022Y-52669935D01*
X175078022Y-52669935D02*
X175173260Y-52717554D01*
X175173260Y-52717554D02*
X175458974Y-52717554D01*
X175458974Y-52717554D02*
X175554212Y-52669935D01*
X175554212Y-52669935D02*
X175601831Y-52622316D01*
X175601831Y-52622316D02*
X175649450Y-52527078D01*
X175649450Y-52527078D02*
X175649450Y-52336602D01*
X175649450Y-52336602D02*
X175601831Y-52241364D01*
X174982783Y-51812792D02*
X175982783Y-51812792D01*
X175363736Y-51717554D02*
X174982783Y-51431840D01*
X175649450Y-51431840D02*
X175268498Y-51812792D01*
X174982783Y-50241363D02*
X175982783Y-50241363D01*
X175982783Y-50241363D02*
X175268498Y-49908030D01*
X175268498Y-49908030D02*
X175982783Y-49574697D01*
X175982783Y-49574697D02*
X174982783Y-49574697D01*
X175078022Y-49098506D02*
X175030403Y-49050887D01*
X175030403Y-49050887D02*
X174982783Y-49098506D01*
X174982783Y-49098506D02*
X175030403Y-49146125D01*
X175030403Y-49146125D02*
X175078022Y-49098506D01*
X175078022Y-49098506D02*
X174982783Y-49098506D01*
X173372839Y-54193744D02*
X174372839Y-54193744D01*
X173372839Y-53288983D02*
X173896649Y-53288983D01*
X173896649Y-53288983D02*
X173991887Y-53336602D01*
X173991887Y-53336602D02*
X174039506Y-53431840D01*
X174039506Y-53431840D02*
X174039506Y-53622316D01*
X174039506Y-53622316D02*
X173991887Y-53717554D01*
X173420459Y-53288983D02*
X173372839Y-53384221D01*
X173372839Y-53384221D02*
X173372839Y-53622316D01*
X173372839Y-53622316D02*
X173420459Y-53717554D01*
X173420459Y-53717554D02*
X173515697Y-53765173D01*
X173515697Y-53765173D02*
X173610935Y-53765173D01*
X173610935Y-53765173D02*
X173706173Y-53717554D01*
X173706173Y-53717554D02*
X173753792Y-53622316D01*
X173753792Y-53622316D02*
X173753792Y-53384221D01*
X173753792Y-53384221D02*
X173801411Y-53288983D01*
X174039506Y-52812792D02*
X173372839Y-52812792D01*
X173944268Y-52812792D02*
X173991887Y-52765173D01*
X173991887Y-52765173D02*
X174039506Y-52669935D01*
X174039506Y-52669935D02*
X174039506Y-52527078D01*
X174039506Y-52527078D02*
X173991887Y-52431840D01*
X173991887Y-52431840D02*
X173896649Y-52384221D01*
X173896649Y-52384221D02*
X173372839Y-52384221D01*
X174372839Y-51241363D02*
X173372839Y-51003268D01*
X173372839Y-51003268D02*
X174087125Y-50812792D01*
X174087125Y-50812792D02*
X173372839Y-50622316D01*
X173372839Y-50622316D02*
X174372839Y-50384221D01*
X173468078Y-50003268D02*
X173420459Y-49955649D01*
X173420459Y-49955649D02*
X173372839Y-50003268D01*
X173372839Y-50003268D02*
X173420459Y-50050887D01*
X173420459Y-50050887D02*
X173468078Y-50003268D01*
X173468078Y-50003268D02*
X173372839Y-50003268D01*
M02*
